<?xml version="1.0" encoding="UTF-8" standalone="no"?>
<svg
   xmlns:dc="http://purl.org/dc/elements/1.1/"
   xmlns:cc="http://creativecommons.org/ns#"
   xmlns:rdf="http://www.w3.org/1999/02/22-rdf-syntax-ns#"
   xmlns:svg="http://www.w3.org/2000/svg"
   xmlns="http://www.w3.org/2000/svg"
   version="1.1"
   id="svg2"
   viewBox="0 0 745 788"
   height="222.39111mm"
   width="210.25555mm">
  <defs
     id="defs4">
    <filter
       id="filter8709"
       style="color-interpolation-filters:sRGB">
      <feConvolveMatrix
         id="feConvolveMatrix8711"
         result="convolve"
         order="3 3"
         kernelMatrix="0 250 0 250 -1033 250 0 250 0"
         in="SourceGraphic" />
      <feBlend
         id="feBlend8713"
         result="blend"
         mode="multiply"
         in2="SourceGraphic"
         in="convolve" />
      <feTurbulence
         id="feTurbulence8715"
         result="turbulence"
         seed="24"
         numOctaves="4"
         baseFrequency="1 1"
         type="fractalNoise" />
      <feColorMatrix
         id="feColorMatrix8717"
         result="colormatrix1"
         type="luminanceToAlpha"
         in="blend" />
      <feComposite
         k3="0"
         id="feComposite8719"
         result="composite1"
         operator="arithmetic"
         k4="0"
         k2="2.06"
         k1="1.35"
         in2="colormatrix1"
         in="turbulence" />
      <feColorMatrix
         id="feColorMatrix8721"
         result="colormatrix2"
         values="1 0 0 0 0 0 1 0 0 0 0 0 1 0 0 0 0 0 10 -9 "
         in="composite1" />
      <feGaussianBlur
         id="feGaussianBlur8723"
         result="blur"
         stdDeviation="0.91" />
      <feFlood
         id="feFlood8725"
         result="flood1"
         flood-opacity="1"
         flood-color="rgb(99,89,46)" />
      <feComposite
         id="feComposite8727"
         result="composite2"
         operator="out"
         in2="blur"
         in="flood1" />
      <feFlood
         id="feFlood8729"
         result="flood2"
         flood-opacity="1"
         flood-color="rgb(56,111,195)" />
      <feComposite
         id="feComposite8731"
         result="composite3"
         operator="in"
         in2="blur"
         in="SourceGraphic" />
      <feComposite
         k4="0"
         k1="0"
         id="feComposite8733"
         result="composite4"
         operator="arithmetic"
         k3="1"
         k2="1"
         in2="composite2"
         in="composite3" />
      <feComposite
         id="feComposite8735"
         result="composite5"
         operator="in"
         in2="SourceGraphic" />
    </filter>
    <filter
       height="1.7686095"
       y="-0.38430476"
       width="1.8065656"
       x="-0.40328279"
       id="filter8893"
       style="color-interpolation-filters:sRGB">
      <feGaussianBlur
         id="feGaussianBlur8895"
         stdDeviation="16.890902" />
    </filter>
    <filter
       height="1.4435443"
       y="-0.22177215"
       width="1.2132252"
       x="-0.10661258"
       id="filter8969"
       style="color-interpolation-filters:sRGB">
      <feGaussianBlur
         id="feGaussianBlur8971"
         stdDeviation="21.9" />
    </filter>
    <filter
       height="1.2587342"
       y="-0.12936708"
       width="1.1243813"
       x="-0.062190671"
       id="filter4264"
       style="color-interpolation-filters:sRGB">
      <feGaussianBlur
         id="feGaussianBlur4266"
         stdDeviation="12.775" />
    </filter>
  </defs>
  <metadata
     id="metadata7">
    <rdf:RDF>
      <cc:Work
         rdf:about="">
        <dc:format>image/svg+xml</dc:format>
        <dc:type
           rdf:resource="http://purl.org/dc/dcmitype/StillImage" />
        <dc:title></dc:title>
      </cc:Work>
    </rdf:RDF>
  </metadata>
  <g
     transform="translate(-0.5,-198.8622)"
     id="layer1">
    <g
       id="g4226">
      <path
         id="path8899"
         d="m 573,692.86218 a 246.5,118.5 0 0 1 -246.5,118.5 246.5,118.5 0 0 1 -246.5,-118.5 246.5,118.5 0 0 1 246.5,-118.5 246.5,118.5 0 0 1 246.5,118.5 z"
         style="color:#000000;display:inline;overflow:visible;visibility:visible;fill:#000000;fill-opacity:0.62745098;fill-rule:evenodd;stroke:none;stroke-width:1px;stroke-linecap:butt;stroke-linejoin:miter;stroke-opacity:1;marker:none;filter:url(#filter4264);enable-background:accumulate" />
      <g
         id="g4728"
         style="filter:url(#filter8709)">
        <path
           style="fill:#a30c17;fill-opacity:1;stroke:none;stroke-width:1;stroke-opacity:1"
           d="M 607.70266,628.7101 A 257.86149,257.86149 0 0 1 269.79524,765.83656 257.86149,257.86149 0 0 1 132.66879,427.92913 257.86149,257.86149 0 0 1 470.57621,290.80267 257.86149,257.86149 0 0 1 607.70266,628.7101 Z"
           id="path4524" />
        <ellipse
           transform="matrix(1.5308642,0,0,1.518634,-231.59078,-262.17345)"
           ry="52.74221"
           rx="50.260223"
           cy="469.71588"
           cx="477.16187"
           id="path4526"
           style="color:#000000;display:inline;overflow:visible;visibility:visible;opacity:0.81499999;fill:#f7f1f1;fill-opacity:1;fill-rule:evenodd;stroke:none;stroke-width:1px;stroke-linecap:butt;stroke-linejoin:miter;stroke-opacity:1;marker:none;filter:url(#filter8893);enable-background:accumulate" />
        <path
           id="path4351"
           d="m 623.16355,413.86177 c -6.67073,-1.29579 -13.39988,-4.19537 -20.11524,-8.6832 -8.76917,-5.86038 -17.52436,-14.44583 -25.85994,-25.46414 -4.1707,-5.51301 -8.26237,-11.67291 -12.16485,-18.40751 m 8.85404,6.42137 c -11.9914,-17.26344 -21.53212,-38.9777 -28.36145,-64.5857 m -1.57298,20.37507 c -5.21092,-13.0307 -9.332,-27.05735 -12.59367,-42.3267 -2.20022,-10.30027 -3.97788,-21.01126 -5.46551,-32.26146 m 8.62983,19.17163 c -4.51633,-27.94937 -8.91655,-61.41726 -8.87855,-92.74261 m -6.7187,18.18098 c -1.60919,-15.65085 -1.75609,-31.29036 -0.70055,-47.09054 0.87526,-13.10171 2.57172,-26.22735 4.90187,-39.41918 m -1.4778,27.99375 c -0.10697,-25.35639 3.84594,-53.116243 10.07186,-80.589118 m -9.71266,21.375069 c 1.77043,-18.190151 5.49958,-35.935636 10.45475,-52.692606 2.14793,-7.263679 4.53117,-14.3573959 7.09206,-21.2272237 m 0.48197,12.1918697 c 6.8052,-25.542309 13.50539,-46.349211 21.48938,-63.401305 m -7.26102,14.591406 c 6.48189,-13.83842 12.99295,-26.159248 20.05984,-36.85879 7.74183,-11.721419 15.81585,-20.963625 24.38374,-27.504918 4.07492,-3.111064 8.21682,-5.574864 12.4162,-7.383364 m -18.43391,11.942181 c 2.81033,-2.392724 5.70229,-4.505008 8.65802,-6.319071 5.80816,-3.56473 11.83437,-5.9614 17.97806,-7.1084 m -1.0475,513.51913 c -6.00694,-1.15123 -12.06098,-3.74182 -18.07352,-7.73989 -8.66837,-5.76407 -17.25324,-14.46312 -25.37341,-25.82034 -4.70157,-6.57582 -9.25846,-14.06347 -13.5045,-22.31288 m 5.1877,12.51001 c -12.16365,-19.61231 -25.20263,-50.18712 -34.11299,-85.38853 m 5.53072,31.15876 c -2.63241,-9.29193 -5.11841,-18.95774 -7.29044,-28.63681 -3.43833,-15.32206 -6.18237,-31.07302 -7.49678,-46.16791 m 6.88081,13.45553 c -4.85635,-22.39311 -7.58121,-45.72387 -9.79667,-68.45114 m 3.17436,10.09807 c -0.77433,-13.53402 -1.39638,-27.01988 -1.82007,-40.32557 -0.41517,-13.03801 -0.6427,-25.98349 -0.63674,-38.81796 m -0.21236,21.46399 c 0.50185,-30.734855 5.61777,-61.41227 13.48075,-88.40681 m -4.79069,23.367763 c 2.40566,-14.119656 5.06472,-28.285665 8.17842,-42.347981 4.52345,-20.4291609 9.83199,-39.832247 16.29868,-57.806655 m -11.08025,27.9005713 c 8.62086,-27.0390203 19.60439,-49.0426143 32.46097,-64.7886823 4.97504,-6.093175 10.18176,-11.188405 15.56254,-15.251173 m -20.52273,15.658763 c 1.1205,-1.683985 2.25958,-3.322813 3.41631,-4.915031 8.09532,-11.143118 16.99013,-19.916458 26.358,-25.959965 8.81229,-5.6851 17.94491,-8.897 27.24871,-9.56956 M 613.18948,408.7816 c -7.20235,-1.04799 -14.35743,-4.00366 -21.26032,-8.84913 -8.43988,-5.92436 -16.53195,-14.70675 -23.6091,-26.10767 -4.78196,-7.7035 -9.13438,-16.66362 -12.74486,-26.75245 m 12.6378,21.77733 C 554.44034,346.95657 541.78296,315.8833 532.71664,278.3526 m 10.52649,26.93631 c -2.99505,-9.18071 -5.54725,-18.46836 -7.67821,-27.9037 -4.83492,-21.40769 -7.35982,-42.8933 -8.39904,-65.962 m 0.46765,30.09324 c -4.13948,-28.65541 -6.32159,-60.31918 -6.28116,-94.97831 0.003,-2.49945 0.0174,-5.01301 0.0435,-7.54057 m -5.74445,34.51172 c -0.34764,-6.86868 -0.49817,-13.7284 -0.46659,-20.57796 0.12369,-26.83424 3.04768,-53.342573 7.68951,-78.920717 m -1.92387,20.22013 c 3.0808,-26.867255 6.28158,-51.791949 11.46811,-73.86749 0.68398,-2.911216 1.39775,-5.751017 2.1445,-8.518694 m -1.60075,25.817034 c 0.86447,-4.691656 1.798,-9.294516 2.79236,-13.798578 4.35786,-19.739401 9.91958,-37.749099 16.09487,-53.225868 m -2.37339,17.001904 c 7.92052,-21.958299 17.02041,-39.956482 27.26687,-54.090315 5.9493,-8.206388 12.24349,-15.043442 18.78825,-20.439462 m -18.49621,17.416902 c 6.72044,-9.192004 14.1248,-16.545155 21.82743,-21.739661 6.22551,-4.198364 12.62521,-6.977161 19.08319,-8.281168 m -1.78545,511.623123 c -6.33218,-1.11139 -12.57982,-3.75572 -18.60623,-7.92288 -8.6892,-6.00842 -16.9081,-15.17468 -24.27461,-27.46987 -4.55835,-7.60817 -8.77152,-16.38295 -12.55888,-26.28872 m 4.66799,11.65782 c -15.14215,-23.27146 -26.04139,-51.95637 -33.14315,-85.49596 -0.22591,-1.0669 -0.44802,-2.13836 -0.66642,-3.2145 m 7.63092,36.42459 c -2.56208,-7.65804 -4.80279,-15.79424 -6.72315,-24.35432 -3.86351,-17.2218 -6.3587,-35.84675 -7.60571,-55.05419 m 12.37001,11.43035 c -3.90462,-26.04739 -6.56873,-54.05908 -7.26637,-81.88377 m -2.61346,23.55579 c -0.29213,-9.80749 -0.64375,-20.87105 -0.9206,-30.49121 -0.57259,-19.89669 -0.99989,-39.25305 -0.78563,-57.617914 m -1.24789,17.276444 c 1.34035,-32.773081 6.38116,-63.797443 13.30205,-91.429736 0.0404,-0.161431 0.0809,-0.322754 0.1215,-0.483967 m -0.58173,20.3296 c 1.95658,-8.68296 3.86149,-16.952014 5.85299,-24.967484 5.35458,-21.5513895 10.9772,-39.708971 18.33017,-55.371007 m -18.50837,32.9591269 c 7.54007,-22.0659489 17.52622,-41.2758699 28.72883,-56.0636809 6.7797,-8.949427 13.98632,-16.264585 21.43412,-21.786684 m -18.58092,2.766665 c 6.7277,-10.175704 14.40271,-17.854182 22.36117,-23.035863 5.6683,-3.69059 11.53195,-6.15231 17.45149,-7.38971 m 10.84313,522.19995 c -8.05545,-0.58332 -16.31185,-3.57064 -24.71266,-8.93833 -9.28146,-5.93039 -18.69542,-14.73578 -28.253,-26.26637 -7.59089,-9.1579 -15.31907,-20.09738 -22.99804,-32.56006 m 26.69943,30.74963 c -12.95017,-21.10165 -25.65021,-52.51703 -32.81265,-87.3705 -0.0634,-0.30879 -0.12648,-0.6179 -0.18906,-0.92731 m -2.40819,10.27767 c -2.52712,-8.13143 -4.743,-16.54462 -6.61808,-25.16636 -3.06291,-14.0834 -5.19646,-28.63162 -6.30585,-43.29637 m 3.0573,30.23968 c -5.96788,-27.78805 -6.15705,-58.46786 -2.88912,-90.99578 m -4.61538,18.39359 c -0.89084,-11.51966 -1.10796,-22.64666 -0.74137,-33.48694 0.67325,-19.90788 3.31188,-38.68828 7.22973,-56.854126 m 0.3947,29.125956 c 1.10759,-25.949253 4.36728,-51.280273 9.05219,-74.904675 M 534.283,60.82115 c 1.43209,-11.844887 3.58563,-23.731979 6.18233,-35.202236 3.09836,-13.686187 6.86667,-26.9523699 10.91104,-39.081083 M 542.3782,2.3504758 c 6.47998,-26.2318638 17.32569,-48.9442348 28.82771,-65.7927088 m -10.10689,18.742235 c 3.72064,-6.838664 7.72315,-13.235778 11.9579,-19.075009 8.19326,-11.297575 17.12298,-20.328564 26.5036,-26.632225 8.35073,-5.611594 16.94688,-8.991264 25.67455,-10.070308 M 516.22828,140.11202 540.63731,-18.884641 m 24.50142,-51.5105 59.29477,-46.122499 M 531.6447,7.8926387 590.90134,-107.38942 M 587.3819,405.80936 529.01535,283.10524 m -7.863,-52.50301 1.25457,-169.526612"
           style="fill:none;stroke:#8d0303;stroke-width:1;stroke-opacity:1"
           transform="matrix(0.75201608,0.65914476,-0.65914476,0.75201608,0,0)" />
        <path
           id="path4365"
           d="m 611.15362,633.05079 c -3.9778,9.34053 -10.16428,18.13836 -18.32659,26.12498 -9.82886,9.61729 -22.49648,18.02716 -37.39711,24.74138 -1.16982,0.52712 -2.35288,1.04351 -3.54873,1.54888 m 16.1337,-18.97023 c -4.47284,2.52207 -9.15418,4.89255 -14.0272,7.10133 -15.63663,7.08756 -33.29219,12.52882 -52.25793,15.8961 m 8.71766,2.97798 c -21.56918,4.08845 -44.24765,5.48861 -67.79489,3.44616 -2.01599,-0.17486 -4.03969,-0.37497 -6.07145,-0.60085 m 22.26919,3.21216 c -3.29179,0.11099 -6.63608,0.15002 -10.02853,0.12015 -26.22064,-0.23085 -54.6908,-4.57827 -82.28302,-10.94705 m 18.32335,-3.03167 c -24.08584,-4.97629 -46.14914,-11.65348 -66.46204,-20.76963 -3.39643,-1.52428 -6.74164,-3.11554 -10.03864,-4.77731 m 19.68456,13.97331 c -3.02996,-0.92363 -6.01617,-1.91666 -8.96016,-2.97654 -21.46636,-7.72817 -40.55253,-18.96445 -57.78903,-32.49148 m 8.32637,12.18325 c -23.69299,-11.51257 -43.66535,-25.13248 -60.5926,-40.24606 m 18.33893,5.92703 c -6.07137,-4.4192 -12.05474,-8.82888 -17.92584,-13.25769 -13.30183,-10.0341 -25.75411,-19.96217 -37.09124,-30.04863 m 9.23347,11.84291 c -19.18831,-19.14103 -35.02908,-40.94188 -45.36725,-63.18694 -2.50985,-5.40054 -4.68743,-10.80734 -6.51717,-16.1982 m 13.3877,22.15207 c -1.54653,-2.61962 -2.97197,-5.2576 -4.27734,-7.90413 -6.74372,-13.67237 -10.30418,-27.59976 -10.85377,-40.77608 -0.52901,-12.68307 1.72057,-24.73363 6.60579,-35.53744 M 606.9353,627.68893 c -3.87423,8.83707 -9.5548,16.92772 -16.84432,24.16093 -9.67394,9.59921 -22.07367,17.58621 -36.66853,23.90728 -2.548,1.10355 -5.15714,2.15386 -7.82364,3.15137 m 13.35306,-13.68018 c -3.20435,1.99755 -6.59338,3.8537 -10.15967,5.56656 -20.8121,9.99587 -47.04672,14.81889 -76.42103,15.02631 m 23.03209,5.11638 c -16.56912,2.87628 -34.59228,4.78251 -53.38275,6.16901 -9.0243,0.66588 -18.1419,1.20582 -27.22582,1.67421 m 24.71739,-5.52767 c -24.72736,-0.14055 -49.01087,-2.96847 -75.03048,-6.42037 m 18.1563,-2.51602 c -20.82109,-4.90258 -42.59448,-10.81992 -64.26589,-18.21055 -4.55577,-1.55366 -9.11044,-3.17344 -13.6576,-4.86466 m 18.19794,9.39756 c -1.58096,-0.506 -3.15299,-1.0227 -4.71612,-1.54971 -27.76148,-9.3598 -52.70356,-21.97787 -74.46188,-35.32576 m 21.31227,11.13008 c -20.34289,-10.69684 -39.77703,-24.6067 -57.05338,-40.40474 -7.72871,-7.06738 -15.0031,-14.49128 -21.73827,-22.16156 m 19.79841,19.80841 C 177.8962,580.43284 156.28002,556.41967 143.52103,534.2149 m 13.39379,17.54636 c -8.31161,-10.96763 -14.83184,-22.36146 -19.49215,-33.85235 -5.77097,-14.22944 -8.67152,-28.55718 -8.66212,-42.44464 m -8.06808,29.07645 c -1.75026,-7.27243 -2.81516,-14.40013 -3.1532,-21.38375 -0.522,-10.78384 0.69397,-21.15691 3.73758,-31.02932 m 486.0016,169.98351 c -4.30207,11.29268 -11.26459,21.56831 -20.65543,30.45413 -9.80647,9.27909 -22.22343,17.00259 -36.82155,22.71794 -3.90663,1.52949 -7.96542,2.91337 -12.16463,4.14226 m 27.693,-10.1432 c -4.04098,2.04012 -8.23664,4.00741 -12.57045,5.88946 -22.48358,9.76395 -50.0249,17.80398 -78.85027,20.57508 m 25.61455,-1.26304 c -16.69125,2.23485 -34.68646,2.4261 -53.4178,0.0851 -13.32253,-1.66499 -27.00702,-4.60955 -40.86016,-9.00617 m 20.70658,10.54396 c -32.28779,-2.6701 -64.05648,-9.12162 -94.7461,-19.91011 m 29.67209,-1.00595 c -14.35887,-3.09724 -29.11994,-7.09034 -43.86635,-11.50773 -13.87446,-4.1562 -27.8077,-8.71098 -41.12423,-13.17425 m 25.84263,12.23302 c -22.74175,-9.36252 -44.32702,-19.99753 -64.58064,-31.60985 m 16.13761,10.69221 c -15.96662,-10.01369 -30.86979,-20.23992 -44.48989,-31.23414 -8.7062,-7.02771 -16.76375,-14.27037 -24.12674,-21.82479 m 14.099,16.15473 C 177.29964,588.09664 160.16253,568.46595 147.368,548.90002 m 8.91074,15.36692 c -8.80977,-11.19072 -15.77446,-23.25866 -20.80624,-35.60975 -6.06737,-14.89307 -9.32445,-30.1813 -9.7338,-45.12226 m -1.83887,14.03349 c -2.25709,-7.54172 -3.659,-14.81991 -4.2361,-21.83369 -0.96603,-11.74046 0.3807,-22.74364 3.90612,-32.87975 m 480.63064,189.76259 c -4.54786,9.71017 -10.624,18.45466 -18.14835,26.22685 -9.46494,9.77668 -21.0552,17.85208 -34.57955,24.4774 -1.88287,0.92238 -3.8004,1.81541 -5.75253,2.68063 m 27.72302,-17.4142 c -3.77982,2.23932 -7.76239,4.33671 -11.93927,6.29 -19.03968,8.90378 -41.79083,14.66509 -67.25608,17.4329 m 17.12303,0.16323 c -18.1981,3.31147 -38.93037,5.07579 -61.49939,5.40164 -10.86692,0.1569 -22.12399,-0.0208 -33.64007,-0.51723 m 25.77052,-5.63811 c -30.35486,-1.85095 -61.36877,-6.75328 -92.13946,-15.07309 m 30.46486,1.05811 c -17.27986,-3.97646 -35.61251,-8.80629 -53.70236,-14.16064 -10.29308,-3.04661 -20.52599,-6.26855 -30.46532,-9.60963 m 11.70381,20.19381 C 278.2456,663.25478 251.65767,648.34046 228.70589,631.70903 m 20.71831,-2.16438 c -17.01311,-10.30414 -31.98137,-20.40764 -45.51634,-31.05897 -4.38344,-3.44954 -8.60015,-6.94399 -12.66486,-10.50125 m 15.01204,20.86585 c -27.924,-23.6634 -53.54245,-48.63934 -72.64055,-76.0901 m 28.56199,29.65096 c -7.54492,-10.51953 -13.92674,-21.28272 -18.85492,-32.10387 -6.49395,-14.25922 -10.34513,-28.35969 -11.20678,-41.92751 -0.29863,-4.70223 -0.23694,-9.32427 0.19308,-13.84822 m -7.38797,11.06037 c -0.9652,-4.48666 -1.60544,-8.90801 -1.92224,-13.24909 -0.76027,-10.41771 0.34322,-20.36343 3.27635,-29.6175 m 481.21302,194.04989 c -4.71755,8.70534 -10.51976,16.57855 -17.38289,23.54933 -9.2443,9.38929 -20.3143,17.03846 -32.95111,22.74818 -4.06152,1.83513 -8.27945,3.4677 -12.64989,4.89611 m 16.29888,-14.66066 c -2.43536,1.13403 -4.9159,2.24412 -7.43835,3.32875 -23.08931,9.92824 -50.97826,18.25359 -79.27484,22.1899 m 29.07525,0.23712 c -15.75555,2.05934 -32.31457,2.83061 -49.4552,2.27426 -8.50467,-0.27604 -17.13981,-0.87837 -25.88578,-1.80868 m 15.22098,-3.03973 c -25.71224,-0.54892 -50.64567,-5.10474 -76.56742,-12.1032 m 13.51221,3.11179 c -20.89262,-4.51889 -40.59311,-10.18955 -59.6633,-17.16171 -3.09023,-1.12981 -6.16228,-2.29316 -9.21887,-3.49065 m 12.41861,10.70162 c -1.73939,-0.55396 -3.47023,-1.12845 -5.19238,-1.72287 -26.32242,-9.08552 -50.43955,-22.77164 -71.6206,-38.54214 m 18.11483,10.49097 c -21.39387,-11.41896 -41.05788,-24.12869 -58.33228,-37.78214 -7.33494,-5.79744 -14.214,-11.74512 -20.59894,-17.81523 m 16.16363,15.46107 c -0.26745,-0.22691 -0.53434,-0.45393 -0.80069,-0.68105 -25.09877,-21.40242 -44.28521,-42.93957 -55.83323,-66.20622 m 14.43409,19.31702 c -9.63014,-12.35399 -18.00957,-24.8227 -24.85075,-37.34444 -7.89398,-14.44872 -13.57938,-28.67665 -16.85659,-42.5754 -0.97888,-4.15147 -1.73827,-8.25407 -2.27869,-12.30557 m 11.665,32.39024 c -1.20409,-6.07838 -2.06751,-12.06619 -2.54294,-17.99038 -1.05239,-13.1135 -0.1773,-25.63945 2.89048,-37.65353 M 299.18007,668.87743 165.00842,580.14352 M 128.0744,523.03661 122.03895,435.73479 M 173.5249,587.43547 114.2109,485.06872 M 590.52211,666.07854 473.4931,702.22738 M 394.12507,696.90074 235.70283,636.5415"
           style="fill:none;stroke:#8d0303;stroke-width:1;stroke-opacity:1" />
        <path
           id="path4377"
           d="m 551.81577,430.21897 c -3.54601,6.28713 -9.04176,11.71875 -16.25327,16.07616 -9.32677,5.63551 -21.40966,9.40318 -35.47422,11.01866 -6.512,0.74796 -13.40508,1.02827 -20.54816,0.82256 m 22.27309,-10.68729 c -21.42224,1.99362 -45.98492,-0.36402 -69.72054,-7.0563 m 6.70582,6.79864 c -12.29174,-3.15738 -24.2164,-7.31793 -35.52009,-12.50586 -11.33161,-5.20073 -21.91169,-11.37452 -31.61089,-18.50297 m 18.44641,13.19136 c -22.63018,-11.28274 -42.66177,-27.72107 -55.69458,-44.60526 -4.59741,-5.956 -8.31213,-11.94107 -11.0608,-17.82097 m 10.6437,11.3414 c -1.20766,-1.47605 -2.35962,-2.95119 -3.45582,-4.42514 -8.37113,-11.25571 -13.44074,-22.38446 -15.20752,-32.99761 -1.76328,-10.59216 -0.20805,-20.55362 4.58577,-29.25994 2.01694,-3.66308 4.60185,-7.09513 7.74509,-10.26311 m -11.96021,25.09969 c 0.44415,-3.04133 1.25711,-5.99683 2.42534,-8.84084 3.64834,-8.8819 10.70971,-16.58634 20.84085,-22.72397 10.14553,-6.14633 23.22655,-10.64225 38.69813,-13.38395 0.0661,-0.0117 0.13211,-0.0234 0.19819,-0.035 m -25.41409,4.31634 c 5.15522,-1.62469 10.79815,-2.81678 16.88145,-3.56245 17.34012,-2.12552 37.86164,-0.56832 59.80902,4.43003 m -10.43058,-4.8995 c 17.42142,2.46859 34.30147,7.71438 49.81247,15.47684 4.74596,2.37511 9.33628,4.97175 13.75452,7.77462 m -14.7725,-5.64208 c 31.10233,14.13691 56.88329,31.26683 73.41493,50.67602 0,0 0.0351,0.0412 0.0351,0.0412 m -13.8239,-18.54023 c 6.24862,6.32504 11.90506,12.82204 16.79905,19.48994 8.35278,11.38042 14.20601,22.89061 17.04058,34.21673 2.67841,10.70211 2.57061,20.89896 -0.34713,30.24851 m -10.0478,8.64496 c -3.57292,5.58812 -8.55589,10.39385 -14.7849,14.28606 -9.25938,5.78572 -21.09365,9.4467 -34.82688,10.85624 -7.77845,0.79836 -16.05701,0.8637 -24.6617,0.23662 m 17.63953,-6.83967 c -25.9407,3.48215 -57.15419,-3.56744 -86.8278,-18.15503 -0.0806,-0.0395 -0.16105,-0.0793 -0.24155,-0.11892 m 18.79429,14.96803 c -7.37372,-2.09501 -14.83067,-4.52826 -22.20605,-7.21997 -18.64817,-6.8058 -36.70744,-15.23434 -51.49282,-24.01326 m 23.27091,7.15888 c -17.69851,-10.25101 -32.59628,-22.51741 -43.72386,-34.85888 -4.21199,-4.67147 -7.89859,-9.3698 -11.01626,-14.01263 m 13.12786,9.02641 c -7.49263,-10.75571 -12.76112,-21.44696 -15.37841,-31.8091 -2.73843,-10.84169 -2.48075,-20.98178 0.7845,-30.00777 1.53745,-4.24992 3.7272,-8.21059 6.53256,-11.84567 m -9.39868,19.08647 c 0.41813,-1.55621 0.93296,-3.07784 1.5428,-4.56138 3.56736,-8.67797 10.35731,-15.98967 19.9428,-21.35045 9.58323,-5.35952 21.8528,-8.70407 36.06016,-9.5719 6.51424,-0.3979 13.40258,-0.27204 20.55834,0.41167 m -25.02053,0.14429 c 1.81938,-0.25833 3.6729,-0.48719 5.55849,-0.68675 26.69824,-2.82561 60.16201,0.2225 92.11087,8.80504 m -28.80719,-8.64423 c 9.70675,2.82972 19.40857,6.44159 28.87368,10.8295 21.47449,9.95533 40.97253,23.55471 56.56292,40.11191 m -22.43019,-24.45393 c 16.80035,11.14354 31.64029,23.77408 43.03511,37.09865 6.48484,7.58307 11.74511,15.26444 15.61825,22.88012 m -24.0211,-13.97806 c 6.6875,9.1477 11.2943,18.47674 13.73544,27.48933 2.0533,7.58072 2.56128,14.88101 1.5642,21.68642 m 0.26588,10.6622 c -3.70887,8.17598 -10.15309,15.06088 -18.95189,20.21914 -9.33162,5.47062 -21.16747,8.91106 -34.73812,9.95737 -9.04289,0.69721 -18.7636,0.32287 -28.85194,-1.17416 m 29.46858,2.18902 c -26.63613,1.21363 -59.42781,-2.63138 -88.14541,-13.07428 -1.85317,-0.67388 -3.69317,-1.37598 -5.51864,-2.10704 m 23.52123,10.41576 c -7.07937,-2.3065 -14.07171,-5.09036 -20.89061,-8.34332 -22.77939,-10.86698 -42.67948,-26.52146 -57.43919,-45.58667 m 12.30698,21.65145 c -14.56378,-10.35105 -26.40405,-21.60116 -35.03271,-33.31346 -7.9199,-10.75022 -12.97343,-21.68212 -14.94281,-32.21659 -0.86061,-4.6035 -1.12713,-9.10705 -0.79515,-13.45733 m 11.43674,20.53394 c -2.3395,-4.75384 -4.11054,-9.5171 -5.2742,-14.20231 -2.54708,-10.25519 -2.13649,-19.93862 1.25395,-28.3663 3.38038,-8.40269 9.66826,-15.38611 18.36435,-20.1832 3.36775,-1.85779 7.08387,-3.37869 11.09842,-4.51233 M 330.17651,301.982 c 2.51738,-2.37444 5.34833,-4.54134 8.47035,-6.48528 9.20556,-5.7319 20.81472,-9.44628 34.05379,-10.91191 7.2471,-0.80229 14.9101,-0.92248 22.82601,-0.3611 m -13.45785,3.80276 c 26.58583,-2.00748 55.742,4.0214 84.57131,16.01863 0.57635,0.2398 1.15203,0.48182 1.72704,0.72595 m -24.39156,-8.47694 c 6.38402,2.11938 12.81914,4.54206 19.19096,7.24067 16.5968,7.02914 32.47736,15.80464 45.98189,25.83178 m -15.14072,-8.50515 c 17.18844,11.50807 32.46773,23.77873 44.15674,36.52964 6.56929,7.16609 11.85907,14.32678 15.71062,21.39891 m -12.7071,-27.13314 c 6.3443,8.96091 10.70199,18.4867 12.82663,27.84776 2.04778,9.02233 2.00381,17.78244 -0.14003,25.88376 m -8.01088,21.94806 c -4.12349,6.18977 -9.6747,11.49917 -16.49264,15.81329 -9.36582,5.92632 -20.88374,9.83008 -33.95753,11.70287 -6.91315,0.99029 -14.17974,1.40294 -21.73571,1.2908 M 505.993,451.4438 c -24.4517,2.76064 -53.29538,-1.70243 -81.67732,-12.03928 m 15.40894,7.81592 c -9.0928,-2.4676 -18.42251,-5.59306 -27.75521,-9.29051 -20.48173,-8.11451 -40.61446,-18.8382 -57.82311,-30.97461 m 23.91058,8.0319 c -17.43542,-11.41448 -31.84789,-24.12673 -42.23697,-37.4896 -8.27607,-10.64502 -13.79661,-21.45224 -16.28237,-31.88703 -0.0304,-0.12763 -0.0604,-0.25518 -0.0898,-0.38267 m 16.91374,20.99007 c -4.63068,-7.82482 -7.99856,-15.63725 -9.86322,-23.22514 -2.55488,-10.39666 -2.21067,-20.08241 1.14063,-28.51176 3.33822,-8.3965 9.59764,-15.34506 18.3616,-20.14527 0.5085,-0.27852 1.02522,-0.54967 1.55002,-0.81329 m -30.89625,21.80658 c 3.76184,-5.55469 9.03326,-10.37227 15.66583,-14.29318 9.47191,-5.59942 21.6008,-9.29846 35.72875,-10.79515 10.91414,-1.15622 22.90452,-0.98355 35.50455,0.58653 m -20.34311,-15.6531 c 21.38712,-2.51556 45.60684,1.80658 70.10544,11.02643 m -15.90437,6.8363 c 9.68063,2.57553 18.95248,5.66397 27.6806,9.19753 21.07828,8.5335 38.50862,19.46596 51.29365,31.69775 m -13.06555,-8.06679 c 16.76835,11.34838 30.50002,23.82107 40.59651,37.01644 8.40249,10.98145 14.08444,22.2137 16.79205,33.13595 0.40967,1.65258 0.75049,3.29519 1.02218,4.92586 M 549.92386,356.361 c 4.0049,7.1411 6.87199,14.34959 8.51063,21.44226 1.81123,7.83972 2.10169,15.44779 0.85532,22.62929 m -11.64613,32.36479 c -4.092,5.2155 -9.23369,9.73864 -15.29629,13.47379 -9.22148,5.68133 -20.38865,9.42327 -32.66899,10.98936 -8.90164,1.1352 -18.2816,1.11556 -27.89181,-0.0611 m 20.71342,-6.45907 c -25.54332,0.27155 -55.60346,-3.54223 -81.68596,-11.79996 -2.42776,-0.76863 -4.82915,-1.57747 -7.20068,-2.42773 m 26.12232,13.09022 c -5.8559,-1.94052 -11.64122,-4.1185 -17.3166,-6.52101 -18.1086,-7.66574 -34.78889,-17.48674 -48.96544,-28.8491 m 13.87704,5.25316 c -17.14875,-10.35508 -30.84765,-23.01323 -40.71563,-36.24048 -4.83616,-6.48248 -8.74802,-13.09818 -11.68417,-19.64676 m 5.77756,12.98085 c -7.09012,-9.92682 -11.69809,-19.70128 -13.82942,-29.03097 -2.43086,-10.64094 -1.60771,-20.58156 2.31347,-29.26408 1.36735,-3.02776 3.10653,-5.89146 5.2034,-8.57207 M 313.47545,327.633 c 0.46172,-1.72619 1.04405,-3.41758 1.74499,-5.0692 3.68365,-8.67983 10.5921,-16.15918 20.37708,-21.97501 9.7799,-5.81282 22.31909,-9.89553 36.97397,-11.94463 5.52371,-0.77233 11.32985,-1.25258 17.36412,-1.42595 m -25.17266,0.10804 c 2.42416,-0.45519 4.91158,-0.8337 7.45727,-1.13436 26.7411,-3.15825 58.70731,2.3936 89.6461,15.92105 M 430.22434,287.3039 c 10.60539,2.56643 21.12162,6.07325 31.44093,10.43015 19.32971,8.16123 37.63764,19.17457 53.83956,31.85506 m -19.70098,-15.46892 c 18.42562,11.2593 32.73205,24.27034 41.97172,37.73046 7.00213,10.20054 10.98857,20.50666 11.80137,30.26887 0.0752,0.90302 0.12313,1.80087 0.14377,2.69292 m -4.51085,-21.6158 c 5.67482,8.1744 9.38149,16.25827 11.19611,23.95684 2.20148,9.33986 1.61333,18.09589 -1.59651,25.72673 m -207.3987,-135.37693 115.29003,10.67303 m 80.0714,56.25429 24.32968,69.30267 M 475.29963,293.50138 563.2955,368.75051 M 520.96427,456.6107 402.6063,440.56526 m -94.72398,-104.91562 27.24027,-47.6998"
           style="fill:none;stroke:#8d0303;stroke-width:1;stroke-opacity:1" />
        <path
           id="path4383"
           d="m 803.54626,339.82169 a 256,256 0 0 1 -256,256 256,256 0 0 1 -256,-256 256,256 0 0 1 256,-256.000004 256,256 0 0 1 256,256.000004 z"
           style="fill:none;stroke:#957878;stroke-width:1;stroke-opacity:1"
           transform="matrix(0.92110281,0.38931942,-0.38931942,0.92110281,0,0)" />
        <path
           id="path4479"
           d="m 312.89577,274.22314 c 9.83479,-3.00754 20.58321,-7.83431 31.89777,-6.53769 13.64016,1.56314 28.02327,6.20413 42.50708,13.65998 1.13615,0.58486 2.27214,1.18666 3.40754,1.80517 m -26.99106,-3.44873 c 4.73517,1.8647 9.50577,3.98793 14.29298,6.36252 15.34844,7.61327 30.95558,17.85827 45.90505,30.39143 m -4.20974,-5.77671 c 16.39977,14.13444 31.94127,30.71555 45.18963,49.71307 1.13727,1.6308 2.2593,3.28158 3.36536,4.95279 m -9.39166,-19.39609 c 2.23392,2.4902 4.43455,5.06545 6.60373,7.7212 16.82784,20.60235 31.14932,45.27855 44.12633,70.88351 m -17.94334,-13.62704 c 11.02309,21.72104 20.23406,42.81752 26.6732,63.63321 1.07854,3.4866 2.0798,6.96606 3.00043,10.44243 m -0.66216,-22.01687 c 1.18352,2.97542 2.28946,5.94321 3.3204,8.90396 7.5175,21.58979 10.99632,42.66848 11.56517,63.36359 m 2.64536,-11.70306 c 5.82003,25.78611 8.26217,49.50801 7.77625,71.6887 m -6.18317,-20.00118 c 0.4448,7.4462 0.81816,14.8918 1.08857,22.30538 0.61236,16.78823 0.68706,33.15986 -0.0852,48.85489 m 3.23367,-14.1049 c -2.3861,26.92067 -9.77249,52.88283 -20.91831,74.52507 -2.71483,5.27148 -5.64944,10.28445 -8.78927,15.01076 m 9.49742,-25.27742 c -1.04796,2.90876 -2.18251,5.72611 -3.39552,8.44838 -6.2625,14.05434 -14.64113,25.64446 -24.24974,34.41622 -9.25234,8.44652 -19.69713,14.33716 -30.76121,17.48681 M 309.13531,278.94301 c 9.46828,-2.61861 19.40008,-7.35059 29.61978,-6.28844 13.57056,1.4104 27.47096,5.95976 41.48143,13.24214 2.44534,1.27104 4.88803,2.62209 7.32766,4.04992 m -21.41596,-2.40333 c 3.64699,1.2214 7.28221,2.67149 10.90092,4.34537 21.18721,9.80043 40.94693,26.83689 59.27284,49.07178 m -9.60807,-18.50806 c 12.96214,10.99237 26.01028,23.91342 39.5112,38.15085 6.48144,6.83503 12.95915,13.85795 19.49623,21.001 m -19.96843,-18.5541 c 15.3853,19.70861 28.68074,40.76155 42.46512,64.06028 M 494.4762,412.35785 c 9.30124,19.05272 18.30064,39.77689 25.94744,61.51133 1.60597,4.56477 3.15291,9.1744 4.6311,13.82542 m -3.53393,-19.31577 c 0.60603,1.56409 1.19965,3.12636 1.78112,4.68672 10.31726,27.6865 16.83197,54.84728 21.13873,80.21144 m -5.24915,-23.91747 c 4.7825,22.58284 6.01052,46.09678 4.29104,68.82202 -0.76956,10.17067 -2.12798,20.16927 -4.01624,29.86194 m 2.55071,-27.24087 c 1.1446,35.66498 -3.42409,68.08842 -11.71018,92.68237 m 3.3074,-23.09306 c -3.20494,13.39456 -7.83562,25.55047 -13.67009,36.24084 -7.22447,13.23721 -16.27888,24.20203 -26.76078,32.56171 m 25.5712,-7.27661 c -4.48282,5.85868 -9.28445,11.11069 -14.42768,15.71179 -7.94212,7.10497 -16.64603,12.60831 -26.08408,16.34715 M 303.99206,283.14786 c 11.4978,-3.87213 23.82963,-9.02697 36.56705,-7.44631 13.30467,1.65105 26.97398,6.27987 40.40644,13.7735 3.59336,2.00465 7.16422,4.21143 10.69871,6.61547 m -24.11859,-15.2997 c 4.05657,1.79751 8.18097,3.77381 12.35282,5.92325 21.57609,11.11647 45.97381,27.7032 67.0845,48.44639 m -17.84428,-18.07677 c 12.24237,11.42802 23.62763,25.01025 33.35842,40.48111 6.91985,11.00179 12.99425,22.94506 17.94151,35.72987 m -5.46775,-19.35146 c 18.05166,26.64946 33.64537,55.3158 45.13205,85.50414 m -20.73743,-25.40941 c 6.92262,13.21667 13.23516,27.35448 19.20868,41.90524 5.61538,13.67841 10.96354,27.80589 16.11048,41.56075 m -5.27043,-27.70761 c 6.96762,23.62732 12.35397,47.22104 16.07945,70.63689 m -0.48092,-18.94257 c 2.31281,18.48578 3.83323,36.4751 3.97788,53.94696 0.0925,11.16985 -0.37968,21.96846 -1.5241,32.3879 m 2.8583,-20.43643 c 0.30684,27.62334 -4.14055,53.06438 -11.48034,75.30684 m 6.31126,-15.98319 c -3.05995,13.98342 -8.01278,26.85843 -14.41321,38.26998 -7.71507,13.75548 -17.54392,25.4142 -28.8759,34.54575 m 9.10557,-8.52337 c -4.51402,6.46912 -9.29455,12.1382 -14.35507,17.02852 -8.47147,8.18655 -17.70746,14.16684 -27.61107,17.94904 M 314.715,280.48816 c 10.4394,-2.44756 21.10441,-7.2029 31.96774,-6.28811 13.6547,1.14985 27.40703,4.91539 41.34144,11.08128 1.94135,0.85904 3.88424,1.76367 5.82975,2.7132 M 364.31118,273.2447 c 4.14458,1.51879 8.30236,3.28553 12.4669,5.29538 18.99409,9.16671 37.76959,23.2088 55.99746,41.33756 M 421.5777,307.96992 c 14.19474,11.96035 28.53221,27.11071 42.8227,44.95878 6.87666,8.58861 13.70282,17.75293 20.43937,27.39529 m -21.76148,-18.92681 c 17.50575,24.63103 33.61607,51.96284 46.79436,81.22398 m -17.9142,-26.8308 c 8.1242,15.84294 15.98695,33.24948 23.36015,51.10691 4.18719,10.1411 8.21469,20.42409 12.02078,30.59915 m 7.09343,-16.73682 c 10.26846,30.04589 15.81678,59.74128 17.95944,87.72726 m -17.7537,-19.35123 c 2.37464,19.62037 4.05819,37.52904 4.49499,54.86106 0.14108,5.59766 0.15057,11.09361 0.0136,16.51552 m 9.567,-22.01322 c -0.42787,36.107 -5.14111,72.77981 -16.07055,105.14102 m 9.77571,-41.48838 c -3.19639,12.47373 -7.44738,24.23544 -12.66799,34.87194 -6.88339,14.02421 -15.36174,25.91495 -25.22385,35.12439 -3.42027,3.19391 -6.99786,6.05692 -10.72082,8.57126 m 7.51279,-4.64372 c -2.85997,3.59729 -5.8616,6.90237 -8.99373,9.90801 -7.51719,7.21359 -15.77627,12.69225 -24.59556,16.3376 M 317.54143,275.28922 c 9.64503,-1.72462 19.40373,-6.2037 29.2237,-5.40224 13.21477,1.07853 26.39859,4.46786 39.17674,10.10348 4.10805,1.81179 8.17238,3.85496 12.18339,6.12799 m -24.2294,-4.06468 c 2.37763,1.15043 4.77592,2.35515 7.19176,3.61251 22.01746,11.45936 47.08184,28.17205 69.38357,47.93524 m -17.00673,-22.34366 c 11.47952,10.93039 22.54681,23.29197 32.96246,36.91623 5.16954,6.76208 10.17567,13.83128 14.99417,21.19131 m -13.29115,-10.93236 c 15.63551,20.69771 27.88658,42.77959 38.65778,67.17734 m -7.38717,-12.10842 c 9.37045,19.10543 17.55972,37.99548 24.38865,57.14444 1.10795,3.10689 2.18024,6.22079 3.21669,9.34455 m 0.65271,-14.40483 c 0.67745,1.71775 1.33353,3.43798 1.96852,5.16042 9.7022,26.31711 14.43741,53.00227 15.90626,78.51575 m -4.23675,-20.62014 c 4.68295,23.77816 7.35609,47.09606 7.87677,69.16742 0.22115,9.3738 0.0535,18.49449 -0.5063,27.31157 m -0.64555,-22.41246 c -0.005,0.34672 -0.0104,0.69313 -0.0162,1.03923 -0.54834,32.62972 -4.7218,61.11769 -14.61505,84.3269 m 5.71154,-23.77433 c -3.51517,15.23022 -8.09555,29.69096 -13.8206,43.04987 -6.60568,15.41373 -14.61178,29.07265 -23.99976,40.67792 -2.8057,3.46835 -5.72364,6.73957 -8.75143,9.81155 m 20.8035,-30.08379 c -3.89269,4.67796 -7.97946,9.06288 -12.29636,13.11975 -9.5563,8.98065 -20.0475,16.16858 -31.62345,21.30776 m 66.07495,-274.673 15.98753,160.06292 M 530.54508,712.2821 466.68727,772.117 M 551.7478,636.36502 509.87353,747.01604 M 349.2516,263.44854 451.20991,331.32366 m 46.0152,64.88649 53.30312,160.9336"
           style="fill:none;stroke:#8d0303;stroke-width:1;stroke-opacity:1" />
        <path
           id="path4481"
           d="m 155.03966,497.30521 c 7.36853,-2.87859 15.42268,-3.87067 23.88799,-2.96235 10.97357,1.17746 22.36449,5.51107 33.70555,12.69906 5.25243,3.32901 10.43508,7.23067 15.54086,11.65006 m -16.98248,-21.39903 c 17.88166,10.69002 36.28512,28.32646 52.39434,50.17011 m -15.77518,-6.60474 c 7.15542,9.23838 14.10726,19.40457 20.36356,29.96498 6.27889,10.59852 11.81814,21.52627 16.21803,32.35904 m -0.56937,-12.72832 c 11.91979,25.03105 17.43025,50.06996 17.49794,72.16965 0.0238,7.78186 -0.63169,15.16373 -1.92578,21.99189 m -5.82603,-35.84371 c 0.006,1.79116 -0.0136,3.56346 -0.061,5.31527 -0.36365,13.4512 -2.34482,25.36851 -6.31786,35.19532 -3.95954,9.79344 -9.76498,17.13715 -17.16859,21.59637 -3.09824,1.86609 -6.44729,3.20642 -9.99573,3.9953 m 18.43181,-3.32682 c -2.43861,2.17635 -5.02585,4.02901 -7.7504,5.55101 -8.48747,4.74132 -18.28096,6.24845 -28.66637,4.28967 -10.40972,-1.96337 -21.18192,-7.36309 -31.65686,-16.13287 -0.0447,-0.0374 -0.0894,-0.0749 -0.13403,-0.1124 m 8.51072,11.78158 c -5.31141,-2.01531 -10.59316,-4.61092 -15.7737,-7.76225 -14.81272,-9.01061 -28.29817,-22.24035 -39.56197,-38.78527 m 15.90267,8.58767 c -11.4926,-12.47938 -22.8088,-26.79313 -32.65559,-41.53037 -3.03237,-4.5384 -5.92956,-9.12284 -8.6601,-13.72207 m 5.66554,14.37431 c -15.2062,-28.70619 -25.21779,-61.82453 -25.76748,-91.16646 0,0 -0.001,-0.0622 -0.001,-0.0622 m 5.34578,24.18367 c -1.67711,-8.35457 -2.38509,-16.57919 -2.18612,-24.38067 0.33924,-13.30074 3.30284,-25.22866 8.48093,-34.78603 4.90859,-9.05994 11.7621,-15.9228 20.17563,-20.05442 m 5.08548,-3.40319 c 6.654,-1.79981 13.79442,-2.27873 21.26665,-1.42321 11.08893,1.26961 22.67775,5.44809 34.2386,12.29744 6.55917,3.88606 13.04656,8.59236 19.43136,14.05776 m -21.12122,-17.21153 c 23.9171,15.31895 43.90897,37.64225 59.12817,63.82099 0.0418,0.0719 0.0835,0.14373 0.1252,0.21563 M 253.73913,547.4099 c 4.92896,6.55658 9.46835,13.5751 13.62027,20.99808 10.50885,18.78821 18.36972,39.89929 23.57249,61.39309 m -1.9376,-27.42746 c 5.78218,19.94485 8.72985,39.18903 7.96915,57.38181 -0.28425,6.79815 -1.08487,13.33789 -2.40719,19.56286 m 3.96838,-22.20901 c -0.25231,12.6027 -2.87193,24.08427 -7.56998,33.58783 -4.92673,9.96616 -12.05322,17.60466 -20.96109,22.38745 -4.20411,2.25726 -8.78402,3.86832 -13.69138,4.80557 m 17.74449,-4.62141 c -1.36647,1.01812 -2.7767,1.95141 -4.22887,2.79904 -8.50293,4.9632 -18.3531,6.93277 -28.95884,5.90446 -10.61799,-1.0295 -21.69606,-5.0332 -32.6026,-11.59456 -4.99475,-3.00483 -9.90171,-6.51409 -14.67528,-10.45918 m 20.37352,12.56982 c -1.57555,-0.82408 -3.15593,-1.7102 -4.73936,-2.65792 -22.75819,-13.62144 -45.33368,-39.56535 -61.83182,-72.70489 m 14.09217,24.79308 c -6.09739,-7.80209 -11.67411,-16.14754 -16.59937,-24.78578 -11.14341,-19.54404 -18.62598,-39.9946 -21.58584,-58.53478 m 5.03001,21.25186 c -6.43756,-18.75412 -9.07295,-37.75358 -7.83189,-55.13651 0.70568,-9.88417 2.65516,-19.1073 5.76346,-27.36473 m -15.25013,29.12903 c 1.10765,-11.38476 3.78034,-21.47164 8.02997,-29.9891 3.56456,-7.14439 8.19483,-13.09138 13.79721,-17.69223 m 11.96195,-5.97143 c 8.22442,-4.24287 17.69058,-5.88498 27.95269,-4.91781 10.89173,1.02652 22.40917,4.96444 33.9704,11.43493 7.70303,4.31118 15.31363,9.68271 22.6906,15.91904 m -17.81162,-15.15198 c 22.2667,13.03913 45.28707,38.54383 63.32564,69.13598 1.13007,1.91652 2.23535,3.84506 3.31418,5.78267 m -18.0509,-23.0882 c 4.32232,5.98292 8.35918,12.14926 12.06308,18.39801 12.31661,20.77902 20.65608,41.93803 23.97907,60.25951 m -12.07428,-18.61305 c 4.84881,16.57729 7.69079,32.88374 7.97352,47.80217 0.25995,13.71571 -1.65209,25.85891 -5.76996,35.81166 -1.79592,4.34068 -3.99538,8.22422 -6.57574,11.60991 m 13.42154,-35.97525 c -1.0317,5.68545 -2.60843,10.94167 -4.67605,15.71221 -4.51925,10.42708 -11.33289,18.43629 -19.88963,23.71663 -8.5865,5.29871 -18.73423,7.74781 -29.95832,7.59413 -4.34271,-0.0594 -8.80921,-0.50734 -13.36792,-1.30687 m 27.64104,5.35454 c -3.53936,0.26607 -7.20259,0.1928 -10.9694,-0.21736 -11.11068,-1.20983 -22.94135,-5.32836 -34.97237,-12.04773 -6.5881,-3.67949 -13.17531,-8.10399 -19.69309,-13.18821 m 15.16858,12.0929 c -20.71435,-15.34375 -40.73864,-37.9296 -54.89389,-64.48658 -0.28612,-0.5368 -0.56979,-1.07508 -0.85097,-1.61482 m 9.22211,20.19646 c -4.24963,-5.61901 -8.17244,-11.54086 -11.76932,-17.69933 -9.33663,-15.98589 -16.35535,-33.36837 -21.06826,-50.46477 m 4.1413,17.70864 c -6.88212,-18.99762 -9.91954,-39.1347 -9.03143,-57.80564 0.49981,-10.50768 2.23503,-20.41248 5.12934,-29.34458 m -9.34964,14.09453 c 0.43275,-11.71535 2.81964,-21.87844 6.87428,-30.21303 3.90087,-8.0185 9.32872,-14.30808 15.98429,-18.62783 m 12.97724,4.58599 c 6.64247,-1.97089 14.0852,-2.45553 22.13466,-1.40787 11.01464,1.43357 23.0513,5.72646 35.36897,12.7388 6.51923,3.71134 13.10567,8.17933 19.6177,13.36504 m -6.697,-20.54262 c 21.20363,13.34984 40.91478,34.49706 56.25526,60.34658 m -14.86312,-14.09495 c 5.9676,7.68804 11.24277,15.98127 15.77922,24.75145 9.95976,19.25489 16.08397,40.29258 18.38493,61.08491 m -6.09609,-31.98745 c 6.49336,19.12082 10.07312,38.35479 10.04864,55.85543 -0.0195,13.94959 -2.32849,26.39283 -6.87554,36.63674 -0.0556,0.1252 -0.11148,0.25006 -0.16771,0.37457 m 11.57994,-31.14966 c -0.58875,9.4703 -2.68045,18.14293 -6.01986,25.65395 -4.58369,10.30969 -11.45502,18.32286 -20.05065,23.62677 -8.6155,5.31619 -18.79069,7.81775 -29.94608,7.63014 -0.64591,-0.0109 -1.29454,-0.0307 -1.94574,-0.0596 m 13.29548,9.51744 c -6.59385,2.19543 -13.78277,2.8792 -21.3423,2.03965 -10.80771,-1.20029 -22.16579,-5.48943 -33.3841,-12.59227 -8.67328,-5.49146 -17.10416,-12.56226 -25.04321,-20.93615 m 18.73635,0.54392 c -18.81581,-13.3657 -35.41803,-31.01115 -48.79653,-51.79074 m 12.06773,23.55201 c -5.55855,-7.84383 -11.112,-16.27141 -16.43086,-25.03675 -12.89648,-21.25306 -24.21624,-44.14644 -31.56816,-66.42313 m 20.07701,33.32844 c -5.56782,-18.2009 -8.62647,-36.24491 -8.29854,-52.70155 0.27281,-13.69061 2.88421,-25.80181 7.83123,-35.68478 0.74724,-1.49281 1.54602,-2.93105 2.3955,-4.31268 m -18.00566,9.7451 c 1.14195,-7.96917 3.31288,-15.13588 6.42419,-21.32458 3.43658,-6.83569 8.00062,-12.43876 13.53329,-16.61151 m 18.23237,7.50051 c 5.94144,-1.66138 12.61028,-2.10495 19.87847,-1.33446 11.05274,1.17168 23.34842,5.13903 36.27805,11.57993 9.34686,4.65614 18.98795,10.5909 28.48335,17.56268 m -23.8079,-20.20463 c 20.61136,13.59092 42.03827,37.86049 59.86152,67.29816 1.61626,2.66948 3.19455,5.36892 4.73085,8.09162 m -11.11706,-20.50619 c 3.33304,5.03894 6.50316,10.2552 9.47699,15.60442 9.49421,17.07787 16.81548,35.1971 21.17947,52.96469 m -6.57291,-20.87786 c 5.43252,19.22069 8.52647,37.00665 8.28111,53.28044 -0.11915,7.90331 -1.02829,15.27056 -2.75402,22.02859 M 298.8315,664.0805 c -1.13195,11.58758 -3.59188,21.96132 -7.62111,30.75732 -4.58919,10.01842 -11.06935,17.64633 -19.26323,22.47721 -2.84908,1.67973 -5.88668,3.00931 -9.0935,3.97927 m 11.72822,-1.64309 c -1.48597,1.16329 -3.02959,2.21439 -4.62738,3.15192 -8.38388,4.91943 -18.21538,6.682 -28.80197,5.16009 -10.60441,-1.52447 -21.7393,-6.31132 -32.68463,-14.13584 -4.12041,-2.94557 -8.18417,-6.30006 -12.15762,-10.03445 m 17.43285,11.56007 c -2.18329,-1.12229 -4.36937,-2.3391 -6.5535,-3.64766 -22.91491,-13.72882 -44.68626,-36.98568 -60.31681,-64.61209 m 10.35924,20.57231 c -6.15649,-8.57531 -11.80089,-17.66447 -16.68333,-27.08575 -9.19977,-17.75211 -15.4416,-36.18945 -17.8203,-54.51104 m 7.33856,22.74214 c -7.50519,-20.44825 -12.6212,-40.75095 -14.35069,-58.98615 -1.31527,-13.86786 -0.63779,-26.16575 2.1181,-36.38269 0.25384,-0.94108 0.52482,-1.86261 0.81281,-2.76433 m 0.42415,31.38212 c 1.40874,-9.96493 3.68017,-18.8809 7.01309,-26.63968 4.0411,-9.40733 9.52396,-16.81414 16.38584,-22.0492 m 82.75666,235.49726 -84.53313,-79.11923 m -28.76383,-93.53405 23.2715,-69.66513 m -1.19556,151.2677 -23.3777,-113.39835 m 87.3106,-43.45346 83.66277,85.24439 m 10.5034,140.95956 -50.76549,20.98018"
           style="fill:none;stroke:#8d0303;stroke-width:1;stroke-opacity:1" />
        <path
           transform="matrix(-0.77472056,0.63230377,-0.63230377,-0.77472056,0,0)"
           id="ellipse4503"
           d="m 169.92454,-811.35295 c -0.81855,7.17162 -3.76605,14.3143 -8.71218,21.13551 -6.3969,8.82198 -16.05965,16.9965 -28.38563,23.96012 -5.70701,3.2242 -11.94712,6.166 -18.60673,8.75746 m 16.35504,-18.51544 c -18.95592,10.17643 -42.498558,17.56752 -66.966935,20.64398 m 8.823586,3.65155 c -12.551178,1.87714 -25.154797,2.68734 -37.586429,2.30947 -12.462318,-0.37879 -24.611241,-1.94645 -36.3204344,-4.7364 m 22.1266894,4.96905 c -25.2373077,-1.58219 -50.088228,-8.9249 -68.666134,-19.40305 -6.553466,-3.69623 -12.305208,-7.76288 -17.126177,-12.10876 m 14.219371,6.3028 c -1.687044,-0.88943 -3.322408,-1.79971 -4.905963,-2.73059 -12.092739,-7.10862 -21.095004,-15.38565 -26.854298,-24.47361 -5.747905,-9.06999 -8.193563,-18.851 -7.167496,-28.73673 0.431706,-4.15932 1.476506,-8.32695 3.138398,-12.46871 m -1.244788,27.77574 c -0.774949,-2.97429 -1.176751,-6.01311 -1.207929,-9.08755 -0.09737,-9.60152 3.40736,-19.44722 10.349689,-29.04486 6.952185,-9.61126 17.25081,-18.84515 30.434324,-27.39393 0.05626,-0.0365 0.112572,-0.0729 0.168932,-0.1094 m -21.728558,13.86999 c 4.115963,-3.50353 8.849575,-6.79847 14.162616,-9.85366 15.144533,-8.70867 34.653211,-15.26375 56.8149522,-19.2043 m -11.5151022,-0.45212 c 17.0079808,-4.50867 34.59854,-6.24848 51.907844,-5.13719 5.296186,0.34002 10.535263,0.9447 15.696132,1.80632 m -15.803564,0.55429 c 34.152222,0.9128 64.568144,6.65419 87.351864,18.09596 0,0 0.0484,0.0243 0.0484,0.0243 m -19.9513,-11.69554 c 8.21808,3.3933 15.95764,7.17554 23.06145,11.41204 12.1244,7.23064 21.99696,15.55394 29.01737,24.8829 6.63363,8.815 10.50417,18.2493 11.45658,27.99713 m -12.41851,-22.33452 c 5.46217,8.1003 8.2106,16.57213 8.27981,25.02636 0.0788,9.62248 -3.31284,19.08968 -9.89776,27.8519 -4.72474,6.28698 -11.01972,12.11631 -18.66092,17.36296 m 22.04234,-41.53969 c -1.12556,6.61423 -3.85763,13.00451 -8.09773,18.97198 -6.30399,8.87218 -15.81632,16.64262 -27.98518,22.89099 -8.98831,4.61524 -19.23113,8.30186 -30.352714,11.02558 m 21.467204,-1.13971 c -21.587278,11.33962 -50.081447,19.42278 -78.281238,24.52555 m 24.750847,-8.49828 c -7.984558,1.19415 -16.01934,1.9563 -24.060381,2.34136 -17.484019,0.83723 -34.959696,-0.11644 -51.422897,-2.23078 m 18.2423646,-2.9381 c -21.3809006,-3.97458 -41.3782206,-10.28582 -58.0403766,-19.20483 -6.089504,-3.25963 -11.641905,-6.81981 -16.585692,-10.65916 m 16.035682,13.44437 c -12.006618,-6.40065 -21.223341,-14.27275 -27.27578,-22.88601 -6.088285,-8.66428 -8.933555,-18.0148 -8.361454,-27.3362 0.47575,-7.75153 3.311751,-15.40978 8.465989,-22.53527 m -7.285672,22.48418 c 0.0013,-0.13244 0.0033,-0.26493 0.0059,-0.39748 0.185624,-9.46708 3.57918,-19.07249 10.036597,-28.40989 6.447368,-9.32286 15.83923,-18.22127 27.653065,-26.33187 8.066919,-5.53821 17.226253,-10.68181 27.220514,-15.27735 m -27.639582,12.35888 c 23.894371,-12.64189 56.4598695,-19.38116 90.850368,-16.13626 1.858188,0.17533 3.718162,0.37943 5.578934,0.61259 m -31.082559,-5.41407 c 7.751794,-0.75202 15.712446,-1.1766 23.779246,-1.25855 20.72987,-0.21061 41.854629,1.84459 61.618055,6.22629 m -31.566897,4.582 c 20.300622,3.08564 38.937197,9.18843 54.436917,17.25814 11.79933,6.14317 21.66648,13.36598 29.10712,21.22129 m -17.07012,-16.03014 c 8.0181,5.42973 14.4858,11.47851 19.2405,17.92532 6.40208,8.68049 9.61565,17.97191 9.4868,27.26512 -0.1288,9.29113 -3.60093,18.42049 -10.22184,26.68888 -1.45277,1.81427 -3.05324,3.58197 -4.79654,5.29551 m 16.993,-24.3128 c -1.56258,6.4319 -4.64042,12.86003 -9.1575,19.12934 -6.3737,8.84614 -15.55137,17.27619 -26.85849,24.6555 -10.03597,6.54974 -21.76825,12.27646 -34.511356,16.5255 m 24.017076,-8.26333 c -22.823087,10.31143 -51.461169,14.6224 -81.021839,10.29699 -3.760874,-0.5503 -7.518032,-1.23749 -11.262196,-2.06287 m 20.85652,7.33269 c -5.278566,0.31083 -10.542287,0.45376 -15.76631,0.424 -29.7396143,-0.16941 -57.089922,-5.93225 -78.801238,-16.94966 m 29.058474,0.76896 c -13.302488,-3.01522 -25.884207,-7.51531 -36.706123,-12.971 -12.065822,-6.08279 -21.809931,-13.27363 -28.532584,-21.07151 -2.753221,-3.19358 -4.983247,-6.4685 -6.669631,-9.78894 m 17.454971,22.05027 c -2.815184,-2.74187 -5.311656,-5.57003 -7.477913,-8.46919 -6.618119,-8.8572 -10.073104,-18.2709 -10.24786,-27.72212 -0.172731,-9.3417 2.865632,-18.52119 8.840667,-26.97426 m -3.952431,16.2314 c 1.707628,-4.86178 4.209222,-9.58744 7.473772,-14.1134 6.556335,-9.08967 16.072354,-17.2187 28.106784,-24.03297 9.581083,-5.42511 20.581286,-9.92145 32.762861,-13.49697 m -24.354885,8.64921 c 19.839111,-9.02221 45.3807317,-14.99295 71.304495,-16.45942 m -17.597256,2.79085 c 7.852674,-0.6975 15.923298,-1.17007 24.057599,-1.38885 21.007537,-0.56501 42.258172,0.56273 61.727435,3.82852 m -26.416068,-11.68658 c 19.063443,2.9106 37.188646,9.65503 52.094386,18.71616 12.26167,7.45382 22.17007,16.35595 29.01224,25.9794 1.54702,2.17588 2.9354,4.38531 4.16087,6.62159 m -19.4079,-13.983 c 6.21732,5.22319 11.45448,10.68536 15.58234,16.40987 6.56441,9.10349 10.13496,18.62306 10.49816,28.28376 0.35551,9.45591 -2.37576,18.77606 -7.95756,27.60988 m 18.90201,-34.50875 c -0.25812,9.1631 -3.51522,18.19696 -9.58929,26.65461 -6.44944,8.98031 -15.93976,17.12823 -27.94427,24.07196 -4.90513,2.83725 -10.19625,5.45415 -15.82209,7.83546 m 15.10009,-6.30127 c -0.87103,0.54293 -1.75915,1.07937 -2.66412,1.60922 -22.20452,13.0005 -53.988566,21.62958 -88.854752,24.77376 m 25.768984,-9.86522 c -10.197012,1.31031 -20.56288,2.02149 -30.88648,2.09108 -21.785754,0.14684 -42.9175742,-2.56519 -61.82957,-8.17119 m 30.5635648,0.59363 c -19.4927049,-3.31601 -38.3243448,-8.96425 -53.7026998,-16.49356 -10.124199,-4.95685 -18.562366,-10.62931 -24.943424,-16.87572 m 7.750129,26.42166 c -8.957543,-5.71107 -16.059587,-12.34113 -21.094132,-19.50861 -6.234412,-8.87569 -9.241879,-18.48879 -8.850583,-28.16166 0.391661,-9.68188 4.18092,-19.29239 11.245712,-28.21518 0.587485,-0.74199 1.197134,-1.47859 1.828753,-2.20945 m -11.750967,7.20155 c 0.943657,-7.45941 3.829393,-14.65124 8.531483,-21.34027 6.34746,-9.02968 15.848141,-16.93668 27.989532,-23.47664 3.400513,-1.83169 6.98627,-3.54494 10.742294,-5.14234 m -10.264502,18.16917 c 1.019537,-0.61612 2.051336,-1.22291 3.094788,-1.82015 24.54169,-14.04702 54.2110382,-22.17394 82.102835,-23.66462 0.259356,-0.0139 0.518529,-0.0272 0.777516,-0.0399 m -16.116574,6.95202 c 9.54602,-1.02475 19.167821,-1.53267 28.746688,-1.47749 23.836915,0.13729 46.830848,3.76271 67.637765,11.01792 m -36.228865,-23.40672 c 19.083413,3.79139 36.908675,10.47189 51.945575,19.53784 6.21902,3.74954 11.8966,7.86904 16.94291,12.29562 m -12.40835,4.99346 c 10.13574,6.72244 18.71345,14.06929 25.10081,22.07869 6.93306,8.6937 10.97574,17.79541 11.90146,27.01232 0.77227,7.68898 -0.65305,15.25617 -4.11867,22.34872 m 1.13433,-23.95415 c -1.16912,7.6145 -4.37795,15.26356 -9.50207,22.74092 -6.20235,9.05077 -15.1177,17.70292 -26.0325,25.43879 -8.05093,5.7061 -17.18544,10.90602 -26.98855,15.28133 m 27.20502,-7.50391 c -20.47206,10.3583 -45.848656,16.85384 -72.690269,18.43003 m 15.196049,-6.10928 c -10.202997,1.7116 -20.435591,2.53218 -30.629104,2.53953 -15.98555,0.0115 -31.665896,-1.97994 -46.56923,-5.48196 m 13.709145,2.13492 c -24.318052,-3.37352 -45.140899,-9.94719 -61.60299,-19.44116 -2.057846,-1.1868 -4.04025,-2.41546 -5.944817,-3.68399 m 11.358101,12.94633 c -2.591716,-1.1687 -5.083366,-2.42164 -7.469355,-3.75058 -11.804697,-6.57494 -20.963634,-14.97206 -26.964816,-24.2399 -6.011952,-9.28448 -8.824718,-19.37401 -8.222992,-29.5585 0.270406,-4.57674 1.22829,-9.15971 2.876199,-13.69757 m -3.078571,22.10351 c -0.843485,-3.43378 -1.25948,-6.89323 -1.244292,-10.35216 0.04222,-9.61487 3.416606,-19.11185 9.959155,-27.90331 6.542461,-8.79133 16.134214,-16.71609 28.280129,-23.25487 5.94837,-3.20232 12.468975,-6.05046 19.481123,-8.49774 m -31.766809,9.6267 c 2.273793,-1.53185 4.65024,-3.00572 7.125437,-4.4182 22.164258,-12.6482 50.9680396,-19.72569 84.012389,-21.08157 m -24.6294298,1.50338 c 11.6083848,-2.03325 23.2659408,-3.08877 34.5916738,-3.17479 20.643871,-0.15678 39.63841,2.90459 55.260393,8.68354 m -20.592097,-4.0525 c 22.286398,2.79827 41.078838,8.73397 55.501818,16.6446 9.92996,5.44632 17.76419,11.81702 23.21913,18.72449 M 135.9327,-879.6455 c 8.75944,5.55408 15.90523,12.2041 21.05301,19.46438 6.31919,8.9124 9.54796,18.61494 9.43318,28.42471 -0.11474,9.80561 -3.56837,19.58501 -10.26394,28.66224 -0.67994,0.9218 -1.39276,1.83553 -2.13816,2.74036 M -77.808692,-872.441 32.540495,-907.49469 m 95.654885,20.64263 49.39101,54.36287 M 46.2185,-907.49469 156.56769,-872.441 m -4.78574,97.40863 -115.266664,31.29956 m -128.09621,-59.76019 6.520634,-54.54158"
           style="fill:none;stroke:#8d0303;stroke-width:1;stroke-opacity:1" />
        <path
           id="ellipse8897"
           d="m 527.42209,469.71588 a 50.260223,52.74221 0 0 1 -50.26022,52.74221 50.260223,52.74221 0 0 1 -50.26023,-52.74221 50.260223,52.74221 0 0 1 50.26023,-52.74221 50.260223,52.74221 0 0 1 50.26022,52.74221 z"
           style="color:#000000;display:inline;overflow:visible;visibility:visible;opacity:0.33300003;fill:#f7f1f1;fill-opacity:1;fill-rule:evenodd;stroke:none;stroke-width:1px;stroke-linecap:butt;stroke-linejoin:miter;stroke-opacity:1;marker:none;filter:url(#filter8893);enable-background:accumulate"
           transform="matrix(1.5224392,1.1042287,-0.30539004,0.42105205,-364.62416,-67.01765)" />
        <path
           id="path4195"
           d="m 608.1345,642.57647 c -9.89441,23.56611 -25.76486,46.72149 -44.77108,66.83309 m 11.333,-25.03799 c -15.20932,18.50769 -31.7704,35.59422 -49.99611,50.22542 m 5.71552,-3.74833 c -20.27266,15.43191 -40.97005,27.85595 -63.20235,36.17016 m 20.72939,-4.2411 c -26.9396,15.3499 -58.494,23.8397 -89.11015,27.91625 m 18.65363,-12.94824 c -28.58418,4.99863 -54.90481,5.99759 -79.58696,1.40922 m 20.95538,8.27697 C 332.53158,787.062 308.75903,780.28638 287.0802,768.54923 m 9.54776,9.25442 c -10.97474,-2.95848 -21.34811,-6.6548 -31.15908,-11.0643 -12.29013,-5.52376 -23.66858,-12.15361 -34.21837,-19.82263 m 19.29072,4.47312 C 230.36879,739.98599 210.49967,727.0769 191.99247,712.62692 m 9.90876,11.14958 C 179.39468,704.25337 158.726,678.52206 142.97391,649.16373 m 16.55588,20.51822 C 141.73588,646.02173 130.59249,618.03417 125.1937,590.613 m 2.37541,24.75825 c -7.92973,-25.45532 -13.85647,-53.00674 -14.89235,-80.92346 m -3.63189,15.19297 c -1.70767,-29.16057 -0.82988,-60.78988 5.99896,-91.74526 m -5.90506,31.61264 c 4.02948,-21.03079 10.1745,-40.5125 19.31357,-57.67339 2.72906,-5.12448 5.72158,-10.035 8.99851,-14.71077 m -4.97988,11.73255 c 0.19828,-0.503 0.39868,-1.00541 0.60118,-1.50721 8.44068,-20.91686 20.4809,-40.67298 34.34061,-56.84618 m -7.42677,6.84223 c 15.39289,-22.27454 32.93709,-40.96483 52.3172,-56.7572 m -13.81841,14.6055 c 22.48232,-19.37191 50.47721,-35.2134 81.4129,-44.57136 m -23.58539,8.68018 c 29.78828,-13.90795 60.69635,-25.45673 93.23879,-32.45491 m -29.70043,5.14154 c 32.22343,-5.61777 65.79386,-4.85804 99.18007,4.57616 m -30.87758,-10.24905 c 27.55365,2.21502 55.62665,7.77826 83.65776,16.97009 m -30.86712,2.22607 c 7.46087,2.15375 14.80242,4.66472 22.04376,7.49883 21.55041,8.43438 42.06854,19.67144 62.15842,32.74925 m -19.2142,-13.51752 c 27.06576,16.5936 49.74518,37.60878 68.01495,60.95269 M 560.34053,353.6495 c 21.18787,22.56531 40.25149,53.00608 53.6132,85.16321 m -14.72438,-24.83613 c 14.51345,27.63544 23.58591,56.02559 26.98025,82.17635 m -10.27427,-18.97659 c 6.32468,32.1819 8.33072,65.92679 4.17669,98.47596 m 4.68989,-38.68795 c -0.9123,30.4384 -8.55521,60.0577 -20.696,90.53183 -0.30148,0.75674 -0.60569,1.51389 -0.91258,2.27147 m 12.38093,-20.25146 c -2.40597,6.94824 -5.08637,13.84042 -8.05441,20.65649 -6.67385,15.32644 -14.77908,30.21508 -24.43505,44.4461 m 22.70949,-31.95483 c -11.932,25.6104 -28.65966,50.25208 -48.48458,70.92921 m 12.46595,-16.38541 c -16.78438,19.82478 -35.33017,36.31865 -56.61022,49.72113 m 12.83859,-8.25285 c -22.20042,17.74333 -46.22907,29.27905 -71.04084,35.17973 m 13.91961,-14.50388 c -31.10657,12.31615 -62.32351,21.84519 -94.2482,25.09187 m 29.45,5.32093 c -27.47213,5.18004 -54.11398,4.26791 -79.56399,-0.27143 m 29.58688,-5.87891 c -25.87169,-2.26364 -51.72295,-8.67722 -76.13872,-18.59737 -1.31632,-0.53483 -2.62802,-1.07966 -3.93488,-1.63437 m 15.87057,10.53002 c -5.04108,-1.80519 -10.10078,-3.73586 -15.16388,-5.79003 -23.32447,-9.46306 -46.48952,-21.45336 -68.07101,-35.64702 m 20.84142,7.27359 c -26.54866,-17.93292 -48.61461,-39.48724 -66.44391,-64.44722 m 21.13543,15.24843 c -18.11669,-22.11169 -34.63966,-46.28138 -45.97826,-70.91865 m -0.43182,32.55204 C 121.67278,625.11152 114.133,594.76374 112.72775,564.04467 m 2.94852,9.54959 c -5.85112,-24.48634 -6.94359,-47.87965 -4.76579,-71.13944 m 2.61084,26.30372 c 1.41354,-33.35034 4.42253,-66.09752 11.42449,-98.06878 m 3.22009,32.58488 c 3.16817,-9.47674 6.73613,-18.86403 10.78747,-28.07058 8.8433,-20.09613 19.93647,-39.20609 34.03204,-56.36882 m -25.18381,6.3809 c 12.71931,-20.59624 29.19768,-38.70143 48.9173,-53.27547 m -10.91479,25.55023 c 19.4643,-20.78795 46.27366,-39.67348 76.54157,-54.60499 m -26.18818,6.1292 c 26.05746,-17.7086 58.00396,-26.68471 92.01838,-29.64343 m -23.51627,8.69473 c 23.87232,-7.17069 49.14962,-10.66988 74.49006,-10.49409 m -18.91838,-3.99594 c 24.47463,-0.59106 50.3277,1.11709 74.89766,6.73531 m -20.82401,-4.46693 c 18.72777,3.10834 38.13581,8.82625 56.90845,16.77984 3.9838,1.68785 7.93572,3.47499 11.84336,5.35736 m -16.53533,-1.14154 c 0.92023,0.41035 1.8397,0.82318 2.75837,1.23856 26.35871,11.91808 51.76237,25.80634 75.15051,43.14407 m -20.59471,-16.08532 c 26.52059,19.69062 49.25449,44.69062 67.25851,73.68328 m -22.42527,-27.61898 c 19.60259,23.45612 34.7076,51.13511 46.89735,80.32612 m -8.51246,-24.53527 c 13.08653,30.3689 17.23514,63.28685 11.93284,95.90512 m 6.20119,-26.95148 c 5.56922,30.23958 1.50448,60.95323 -8.36478,88.27363 m 8.8644,-28.72195 c -3.45044,22.32776 -9.63661,45.41048 -19.08224,67.39269 -3.14442,7.31781 -6.64371,14.49847 -10.51266,21.47344 m 14.70591,-8.91739 c -11.50032,26.38541 -27.48087,48.34409 -46.45427,66.30283 m 5.36261,-18.30691 c -18.94778,20.77046 -39.0395,42.19145 -62.25276,61.08888 m 9.66256,-4.87749 c -20.80749,16.13144 -43.16032,28.69204 -66.11846,37.83003 m 20.55052,-15.02848 c -29.76613,12.8927 -62.81872,20.01635 -97.13789,20.18898 m 33.89775,3.03664 c -27.88211,4.54152 -54.03336,4.8311 -79.67306,1.96871 m 15.58813,-2.7912 c -27.25285,-3.633 -51.65985,-8.75539 -73.63862,-17.48262 -0.51072,-0.20279 -1.02003,-0.4075 -1.52792,-0.61413 m 24.70495,1.99911 c -5.71924,-2.07358 -11.46878,-4.2503 -17.24154,-6.5391 -19.33259,-7.66502 -38.74151,-16.51446 -57.94907,-26.8065 m 6.37398,10.73455 c -24.2488,-15.6297 -45.58554,-36.89788 -60.44084,-62.08377 m 19.74306,15.42385 C 162.85113,677.38623 146.43713,655.00765 132.6309,631.77799 m 8.93187,22.63306 C 127.00922,626.5707 116.16273,595.06104 111.60148,561.41447 m 8.15559,28.7551 c -6.4796,-25.78738 -7.99738,-50.63891 -5.20301,-75.49215 m -3.97176,10.04285 c -0.93129,-24.52721 2.5961,-48.71563 9.42352,-71.96671 m -1.02607,25.45586 c 2.68434,-15.61114 7.77673,-31.02831 14.69419,-45.77596 6.03566,-12.86771 13.44315,-25.18888 21.81438,-36.66413 m -15.7319,16.31012 c 10.69355,-21.5485 26.07298,-40.86506 45.31666,-57.10842 m -6.51012,15.45669 c 16.10143,-20.8376 34.94424,-37.51079 55.48766,-51.22172 m -13.24887,4.74761 c 19.81936,-15.56582 39.48392,-26.6855 59.62899,-34.56338 m -20.8373,11.84956 c 24.89408,-10.12833 50.82787,-18.73146 78.60384,-23.60285 m -22.72882,-4.21585 c 25.72421,-4.8749 51.24783,-6.27273 76.63395,-3.70406 m -12.94524,2.29867 c 30.89681,1.26582 61.76329,7.27193 88.184,18.52511 0.55912,0.23814 1.11612,0.47858 1.67097,0.72133 m -20.533,-16.30626 c 8.04575,2.39438 16.28929,5.291 24.61281,8.63675 18.01209,7.24023 36.29744,16.54252 53.71042,27.32648 m -17.03701,-1.41134 c 20.96083,11.86419 40.35452,27.13053 57.6437,44.1991 m -21.02638,-11.10356 c 19.1676,20.16853 35.03415,41.08807 45.76183,64.54663 m -0.73057,-20.60374 c 17.33898,24.30134 26.15514,54.93095 28.22079,87.2578 m -4.26996,-26.24285 c 8.31796,28.91591 13.9316,59.0715 13.32071,87.0261 m -3.99947,-22.30805 c 2.01351,24.26859 -0.61508,47.8218 -6.6358,70.77992 m -1.77335,-9.76791 c -3.18506,20.36215 -8.01305,39.808 -14.22278,58.41278 -1.06369,3.18688 -2.16682,6.34583 -3.30782,9.47736 m 5.03114,-14.16482 c -10.6958,23.12542 -22.01151,43.50063 -35.32497,61.81448 m 14.93042,-10.51981 c -16.10324,21.96747 -36.36475,40.45228 -60.47894,54.75537 m 6.33789,-10.83389 c -25.27678,20.10799 -52.35239,39.80727 -79.82466,54.01501 m 28.24114,-13.91273 c -23.43547,10.12817 -46.91591,18.46423 -70.89151,24.02995 m 22.33586,-7.95742 c -21.79809,3.96898 -46.45846,6.80635 -71.769,7.13122 m 10.39711,4.07601 c -25.09908,0.70856 -48.93964,-4.22616 -72.31205,-13.39283 m 17.90477,6.45935 c -14.69329,-3.47303 -29.23176,-8.11153 -43.47888,-13.9321 -11.25305,-4.59735 -22.29109,-9.91858 -33.05176,-15.95957 m 13.58986,3.90633 c -21.90266,-11.64139 -41.78861,-26.24524 -58.06286,-44.13011 m 8.90107,6.67675 C 182.1887,704.75995 166.8893,687.47379 154.91638,668.96195 m 9.80546,13.82368 C 149.22327,662.45312 137.88028,641.08064 130.9012,618.14839 m 5.9035,23.17448 c -11.61653,-21.91009 -17.80991,-45.56894 -20.23309,-69.86442 m 1.48103,10.3004 c -6.28332,-28.26507 -9.35173,-58.57918 -8.67511,-87.64124 m 7.67146,27.81677 c 0.73399,-23.93815 5.19768,-47.83716 13.14009,-71.57652 m -16.99471,17.48059 c 3.1781,-12.55227 7.5525,-24.83813 13.0875,-36.80424 7.02897,-15.19594 15.90624,-29.82601 26.52665,-43.79994 m -15.56069,10.9151 c 11.26514,-21.4574 27.70787,-41.47903 46.81993,-57.26427 m -10.66527,18.33703 c 19.06285,-21.37218 45.1421,-41.54284 74.39276,-56.8238 m -11.23177,4.97616 c 20.86601,-14.67118 42.40244,-24.26485 64.56977,-30.28464 m -18.51929,11.24348 c 30.82263,-10.43603 62.32112,-18.02631 95.01719,-19.76494 m -26.59826,-1.3551 c 26.82245,-2.74546 54.0098,0.74968 81.25761,10.08735 m -26.51703,-1.41673 c 21.5347,3.78189 43.71106,9.41959 64.93848,17.70751 9.76586,3.81293 19.29708,8.1741 28.43553,13.14867 M 464.85801,292.9699 c 21.85013,9.36021 43.42371,22.10222 62.92974,37.22681 m -6.33364,-1.73822 c 27.95252,20.98544 49.9806,42.54685 68.2665,67.61555 m -13.75487,-31.74389 c 17.97912,20.35911 31.65013,46.03584 42.34439,73.73098 m -7.4132,-21.0034 c 13.57935,27.09407 20.29951,55.18225 23.1122,84.45507 m -7.30682,-17.45428 c 5.16756,28.39996 4.15878,56.98347 -3.40543,82.61382 m 7.79918,-18.20712 c -1.84013,24.25118 -7.12342,45.42641 -15.9664,64.18568 m 4.64108,-10.62775 c -2.97015,9.63168 -6.4144,19.02918 -10.37139,28.21896 -8.74819,20.31699 -19.95185,39.50111 -33.94131,57.87176 m 34.79162,-49.23865 c -11.94762,23.44256 -25.98409,46.89476 -43.41504,66.98911 m 10.24465,-20.27823 c -19.32943,24.77728 -43.22845,46.76224 -69.39943,62.73837 m 16.20659,-12.27168 c -24.49472,20.35618 -52.87963,34.11 -79.62115,42.72469 m 22.38217,-16.07506 c -21.73754,8.67762 -45.14286,14.73278 -69.47426,17.92893 m 22.45474,3.01476 c -32.19045,5.54058 -64.35167,4.61368 -98.37216,-1.76132 m 32.46608,6.78155 c -26.98824,-3.51119 -53.08301,-9.35556 -79.19612,-19.19651 -4.07268,-1.53483 -8.14077,-3.16503 -12.20775,-4.89632 m 22.16242,8.11421 c -3.85212,-1.48275 -7.69944,-3.03986 -11.53795,-4.67283 -18.71495,-7.96166 -37.11801,-17.68312 -54.76147,-29.28041 m 13.37312,5.53946 c -22.60183,-14.25513 -41.02188,-31.05668 -55.57828,-49.89252 m 7.1001,8.88935 C 163.28526,682.25662 147.2747,660.07781 135.38995,636.3916 m 10.82324,18.52108 C 131.995,631.00419 123.61518,604.77461 120.69052,577.71524 m -1.0763,19.98911 c -8.25702,-25.99143 -10.8113,-50.14171 -9.66327,-73.74254 m 3.68763,18.72579 c -2.47228,-30.5844 2.39576,-61.20356 11.89679,-88.89217 m -14.37972,20.83611 c 2.81385,-15.37668 7.7553,-31.22953 14.34639,-47.05965 6.5512,-15.73433 14.70337,-31.37888 23.96016,-46.48015 m -9.24102,27.18461 c 16.64368,-29.4218 33.78833,-56.60815 54.94935,-81.11365 M 183.64287,353.94 c 17.82238,-18.26492 37.99484,-34.15454 60.24088,-45.76933 m -17.7208,3.47104 c 25.05263,-17.24785 54.52742,-30.51508 83.62412,-37.85769 m -27.26691,13.4941 c 28.44633,-8.53577 61.51264,-16.93195 96.4326,-21.35793 m -21.25474,6.64829 c 30.61109,-1.25387 58.41814,1.7514 83.51702,11.08559 m -18.7036,-5.95843 c 17.7516,3.97374 35.2447,8.8076 51.65231,14.97242 8.72787,3.27931 17.11757,6.92402 25.03856,10.99437 m -19.65957,-2.46999 c 22.52902,11.29927 44.10486,23.11716 62.98587,36.20057 M 531.2541,321.23575 c 20.11217,16.58926 39.81788,37.52638 56.52573,62.58738 m -14.75214,-15.13086 c 19.31584,23.42048 34.69158,49.33103 46.34184,76.07024 m -8.71136,-28.39276 c 9.16984,23.54398 16.72622,48.97445 20.2538,75.95302 m -6.59044,-9.39616 c 4.81269,24.79216 7.08528,51.42519 6.38272,76.88182 m -5.11108,-15.86118 c -1.6159,24.22213 -6.07409,48.61997 -14.16854,71.69163 m 7.33302,-15.15849 c -3.10785,10.92257 -6.73318,21.4567 -10.87661,31.44161 -5.29983,12.77163 -11.4284,24.59837 -18.35866,35.14156 M 246.0027,291.40539 384.99583,261.24203 m 245.17811,204.18163 -4.51318,142.15678 m -74.24585,-275.99862 75.2255,120.70643 M 476.60378,773.72738 335.7683,793.58405 M 107.01392,480.46175 168.74771,352.32956"
           style="fill:none;fill-opacity:1;stroke:#8d0303;stroke-width:1;stroke-opacity:1" />
      </g>
    </g>
    <g
       transform="translate(-519,186)"
       id="g4218">
      <path
         id="ellipse4204"
         d="m 921,709.86218 a 246.5,118.5 0 0 1 -246.5,118.5 246.5,118.5 0 0 1 -246.5,-118.5 246.5,118.5 0 0 1 246.5,-118.5 246.5,118.5 0 0 1 246.5,118.5 z"
         style="color:#000000;display:inline;overflow:visible;visibility:visible;fill:#060606;fill-opacity:0.62745098;fill-rule:evenodd;stroke:none;stroke-width:1px;stroke-linecap:butt;stroke-linejoin:miter;stroke-opacity:1;marker:none;filter:url(#filter8969);enable-background:accumulate"
         transform="matrix(0.37976389,0,0,0.28391304,452.72248,519.32305)" />
      <g
         style="filter:url(#filter8709)"
         id="g4182"
         transform="matrix(0.38367069,0,0,0.38373312,595.23738,439.50603)">
        <path
           id="path4184"
           d="M 607.70266,628.7101 A 257.86149,257.86149 0 0 1 269.79524,765.83656 257.86149,257.86149 0 0 1 132.66879,427.92913 257.86149,257.86149 0 0 1 470.57621,290.80267 257.86149,257.86149 0 0 1 607.70266,628.7101 Z"
           style="fill:#ffe6b0;fill-opacity:1;stroke:none;stroke-width:1" />
        <ellipse
           style="color:#000000;display:inline;overflow:visible;visibility:visible;opacity:0.81499999;fill:#f7f1f1;fill-opacity:1;fill-rule:evenodd;stroke:none;stroke-width:1px;stroke-linecap:butt;stroke-linejoin:miter;stroke-opacity:1;marker:none;filter:url(#filter8893);enable-background:accumulate"
           id="ellipse4186"
           cx="477.16187"
           cy="469.71588"
           rx="50.260223"
           ry="52.74221"
           transform="matrix(1.5308642,0,0,1.518634,-231.59078,-262.17345)" />
        <path
           transform="matrix(0.92110281,0.38931942,-0.38931942,0.92110281,0,0)"
           style="fill:none;stroke:#dbdbdb;stroke-width:2.60618973;stroke-opacity:1"
           d="m 806.51046,354.23481 c 0.50061,25.94569 -5.43618,53.10098 -15.33813,78.64747 m 4.60789,-28.71724 c -6.72961,22.74136 -15.47781,45.20258 -26.75332,66.20789 m 1.11353,-7.72049 c -12.66387,21.61791 -26.7005,41.2714 -43.44043,57.64908 m 16.87226,-9.52001 c -19.26299,25.17074 -45.05421,44.78839 -72.08989,60.71709 m 15.06672,-22.89154 c -24.30312,15.1892 -48.03014,26.97329 -71.96734,33.35076 m 20.02848,-0.0388 c -24.81317,9.44283 -48.5432,12.64365 -71.65386,10.6771 m 10.29968,2.49704 c -10.30541,1.19165 -20.33854,1.74516 -30.12771,1.65788 -14.39742,-0.12837 -28.22546,-1.64261 -41.56871,-4.52675 m 21.40751,-1.6129 c -22.85951,-2.7656 -46.58248,-7.5031 -69.98088,-14.3994 m 12.85971,6.30089 c -28.3522,-9.25015 -56.66576,-25.88613 -81.4356,-47.72983 m 23.70682,13.93875 c -25.94012,-15.38966 -46.60783,-36.62585 -62.44786,-59.1475 m 10.70347,20.34178 c -16.90524,-20.12118 -32.56975,-43.84242 -43.74043,-69.53055 m 3.78028,13.25709 c -12.6074,-25.84127 -23.076,-56.13146 -27.54556,-87.70506 m 3.24238,31.6877 c -3.68362,-18.83268 -5.61361,-37.2172 -4.98001,-54.57896 0.27139,-7.43653 1.01284,-14.66986 2.28318,-21.6513 m 2.63519,13.64007 c -0.54417,-23.345 3.06607,-46.80384 9.18977,-67.6834 m -2.00576,9.52286 c 6.42888,-26.36771 15.71681,-50.47521 27.83374,-72.84412 m -8.49322,19.07982 c 13.50512,-26.3689 33.87357,-50.74871 58.88468,-69.73237 m -18.32234,16.36139 c 22.49097,-23.49907 48.07236,-45.85925 77.39828,-64.37567 m -26.35602,15.02329 c 27.73541,-16.7985 59.01288,-27.952263 92.39858,-30.476301 m -30.28581,0.262423 c 24.37474,-7.171576 50.59686,-11.55661 78.1601,-12.647045 2.29688,-0.09087 4.60184,-0.15881 6.91459,-0.203609 m -32.10103,9.495232 c 4.79477,-0.355954 9.59044,-0.570225 14.391,-0.648738 26.32071,-0.43047 52.59815,3.220242 79.5556,9.832649 M 596.29952,90.49799 c 31.3692,5.984238 60.23331,17.30944 86.27725,32.35889 m -19.82072,-12.1731 c 28.3138,13.14028 56.2326,35.66626 79.63665,61.77695 m -23.25544,-19.03469 c 23.5477,20.747 42.76795,43.96151 56.99752,66.96094 m -19.32326,-15.80637 c 17.30268,27.67826 30.99047,59.11631 38.60963,91.63469 m -5.79229,-38.05685 c 8.12767,25.29597 11.29472,51.33693 10.62899,79.16128 -0.12165,5.08456 -0.37109,10.2237 -0.74053,15.42418 m 4.05098,-2.14301 c -1.33061,23.74863 -5.75364,47.72093 -13.83159,71.16844 m 7.4009,-11.85046 c -6.97007,27.39991 -19.11337,54.64997 -34.91411,78.62475 m 9.1889,-18.83435 c -13.08968,22.33884 -28.34536,41.85547 -46.84258,58.68753 m 10.88751,-10.50071 c -18.82461,21.38898 -40.10842,37.0752 -62.92255,47.45358 m 12.26786,-17.82363 c -28.30664,17.41725 -57.75437,32.47413 -89.01352,41.40956 m 28.56538,0.29929 c -26.21228,9.73983 -52.34262,13.58049 -78.04549,13.7568 -0.16699,0.001 -0.33395,0.002 -0.50089,0.003 m 29.75403,-9.33491 c -6.47086,0.56001 -12.99112,0.85788 -19.53767,0.89963 -21.05815,0.13428 -42.28003,-2.38183 -62.91475,-7.27096 m 16.87456,7.18408 c -29.60671,-5.09912 -60.39022,-14.38427 -89.62166,-27.47995 m 23.07531,3.7011 c -29.12781,-13.3274 -54.56718,-30.82063 -76.38947,-52.45559 m 24.35917,12.26569 c -21.55172,-18.59442 -42.04502,-39.89283 -57.73859,-62.40982 m 2.94874,30.70778 c -18.45387,-24.44482 -30.73621,-52.98354 -37.04438,-82.78391 m 6.97985,8.58257 c -9.57064,-23.39745 -14.49508,-46.22694 -16.14518,-69.46247 m 5.07273,26.21329 c -1.47787,-12.54585 -2.72065,-25.19965 -3.57583,-37.9729 -1.3833,-20.6614 -1.73319,-41.37242 -0.47831,-62.03327 m 7.67125,33.76922 c 5.11705,-31.25185 14.53284,-62.33689 30.93112,-90.14139 m -21.44486,8.53659 c 9.30262,-22.32945 22.64662,-42.63625 39.611,-59.79951 m -9.04766,27.19726 c 15.91037,-23.72593 39.73756,-46.12846 67.69701,-64.96378 m -24.20245,9.16378 c 23.22463,-21.62937 53.10494,-34.99148 85.90657,-42.54574 m -22.28367,12.53964 c 22.5186,-10.74418 46.9843,-17.97141 72.0679,-21.554522 m -18.65876,-1.449581 c 16.7971,-3.078339 34.5758,-5.042804 52.41841,-5.284406 7.57275,-0.10254 15.14202,0.105569 22.63551,0.66766 m -21.15846,-1.886257 c 23.05561,0.211389 47.58905,4.349049 71.21891,11.828778 m -17.31099,1.014665 c 28.68216,8.053543 57.07656,18.477553 83.90916,33.048013 m -22.55595,-13.3027 c 29.08975,15.6661 55.1176,37.21262 76.93583,63.48871 M 720.1013,156.64976 c 22.84191,20.54173 41.64685,45.93814 57.81329,73.55111 m -11.70815,-23.08496 c 17.26717,28.22244 25.94409,59.84139 25.23098,92.06577 m 2.10716,-26.35601 c 7.29773,21.78665 9.35076,44.29701 7.59888,65.94082 -0.60662,7.49456 -1.66831,14.87266 -3.12032,22.06888 m 5.14822,-18.3983 c -1.64196,30.04684 -8.26328,61.91122 -21.16629,91.12235 m 16.96219,-20.17932 c -7.87053,27.77184 -20.5004,51.69071 -36.54188,72.09578 m 3.0449,-20.07786 c -15.80462,22.96075 -33.20097,47.05298 -54.18646,68.98034 m 7.88283,-7.10959 c -18.51626,18.77498 -39.01042,34.28597 -60.60044,46.5812 m 19.50445,-17.21939 c -27.77367,16.70694 -59.59944,27.95182 -93.49302,32.31594 m 33.31887,-0.62037 c -23.79608,6.99486 -46.69832,10.77322 -69.53412,11.98196 -3.19149,0.16893 -6.37861,0.28752 -9.56366,0.35784 m 15.75006,-5.30341 c -3.32675,-0.0261 -6.62134,-0.0751 -9.88515,-0.1514 -24.16957,-0.56487 -46.46667,-2.62391 -67.17873,-7.78582 m 25.46391,-0.41061 c -25.80156,-5.81574 -52.43331,-13.71414 -79.20006,-24.34965 m 7.56281,8.7373 C 405.27374,559.04129 381.60805,540.6781 364.01182,517.90405 m 21.85667,13.37921 C 361.9887,511.80553 342.70901,491.58953 325.74574,469.96979 m 11.36352,21.24587 c -17.80645,-25.78385 -32.2222,-55.88473 -40.47559,-88.80691 m 11.27785,27.97013 c -9.38123,-24.89436 -13.8932,-49.29287 -14.08025,-74.14201 m -1.92426,9.96915 c -1.70709,-10.94593 -2.51127,-21.91885 -2.50478,-32.86146 0.008,-13.35038 1.22234,-26.62229 3.45817,-39.7161 m 0.79981,25.79477 c 1.5311,-29.81615 11.66686,-59.46698 26.63382,-85.82036 m -13.17096,17.57789 c 8.15773,-22.65307 21.18957,-43.41966 38.34516,-61.40015 m -5.10831,16.55105 c 13.77295,-22.54443 30.57507,-41.2446 49.43003,-57.22877 m -12.02519,6.27956 c 18.09515,-17.58225 36.33471,-30.9265 55.39813,-41.17455 m -20.09134,13.35787 c 23.53208,-12.68455 48.52653,-24.00723 75.79227,-31.668989 M 466.57153,93.65898 c 25.03086,-7.551098 50.27042,-11.685781 75.78193,-11.82312 m -12.96627,4.176979 c 6.28827,-0.430865 12.61063,-0.662712 18.9295,-0.687746 25.26276,-0.100085 50.27084,3.108215 72.59393,9.948659 M 599.50385,81.78623 c 26.20798,4.766343 54.6845,14.696782 81.72009,28.09682 m -18.12208,0.4392 c 22.13351,9.66285 42.99444,22.92924 61.99217,38.25055 m -22.11508,-9.91798 c 20.96281,18.09037 38.91961,37.2497 51.94945,59.32904 m -2.38492,-19.52031 c 19.78185,22.56135 31.30564,51.91696 36.19076,83.48031 m -6.5492,-25.5048 c 11.14782,27.85063 19.71328,57.46952 22.04502,85.4327 m -6.46727,-22.18675 c 2.25568,12.73586 3.21048,25.37148 3.03362,37.92193 -0.15672,11.12088 -1.20161,22.154 -3.00705,33.11209 m -2.52954,-26.56112 c 0.006,24.19364 -2.33551,47.61008 -6.67896,70.35709 m 5.24235,-20.8305 c -6.50723,24.50057 -13.87543,46.80637 -23.59085,67.58376 m 12.52565,-12.05428 c -11.92309,24.45654 -28.44508,46.06348 -49.40006,63.9847 m 3.93129,-13.38405 c -21.04601,24.26667 -44.79874,48.81969 -69.95221,68.38687 m 25.90587,-18.55976 c -21.22549,13.96392 -43.08341,26.39942 -66.06159,36.22401 m 21.56559,-10.81334 c -20.59647,7.87927 -44.62538,14.74384 -69.83487,19.10984 m 10.26454,1.52673 c -14.66589,2.87716 -29.10809,3.78017 -43.48645,2.96579 -9.88017,-0.55961 -19.71621,-1.92931 -29.56118,-4.01897 m 18.35701,3.82337 c -26.98372,-1.65931 -54.0989,-7.20835 -80.5156,-16.82881 m 14.92202,0.88611 c -23.46804,-7.69645 -45.47606,-18.62565 -64.35285,-33.22479 m 10.58337,4.40124 c -21.30777,-11.18612 -39.31535,-25.52326 -54.3455,-41.52133 m 11.72284,12.14697 c -18.53149,-17.51863 -33.28096,-36.54395 -43.92512,-57.67123 m 8.32135,21.88288 c -15.10383,-19.89976 -25.03593,-42.06538 -31.32237,-65.42534 m 4.00813,9.60312 c -10.93615,-26.82283 -18.82018,-56.53222 -22.93384,-85.8183 m 11.5201,27.81877 c -1.40449,-10.88856 -2.02397,-21.89156 -1.86719,-32.99457 0.18501,-13.10191 1.45045,-26.31272 3.76725,-39.61066 m -14.65275,17.9552 c 2.63718,-29.32512 11.62767,-57.94522 26.63961,-85.19833 m -12.34296,12.5341 c 7.55806,-23.12053 20.58613,-45.34328 36.6912,-63.7771 m -8.51456,20.10183 c 15.30924,-24.23607 38.20714,-47.89459 64.96514,-67.09262 m -9.05379,8.06625 c 18.54188,-17.65854 38.20263,-30.53615 59.00218,-40.03118 m -17.54089,13.51205 c 28.73543,-14.8871 59.02217,-27.225803 91.40834,-33.783133 m -26.10573,2.791241 c 20.80666,-5.326557 42.25338,-6.739909 64.17911,-4.345264 5.59704,0.611287 11.22064,1.470198 16.86819,2.573733 m -26.80085,1.396188 c 0.90476,0.01789 1.81161,0.03911 2.72043,0.06373 31.04814,0.841225 64.04402,5.651121 94.30009,16.795001 m -35.91642,-9.818001 c 23.03458,5.943413 46.26872,15.483611 67.84679,27.707171 m -7.64497,0.22564 c 30.51571,16.88853 55.8219,34.92155 77.95209,57.21282 m -17.0305,-29.0687 c 20.88012,17.696 37.84116,41.21458 52.06843,67.3206 m -9.97846,-19.7263 c 17.20163,25.11059 27.82438,51.85813 34.6428,80.47877 m -10.42463,-16.80184 c 8.50116,25.34976 11.80945,51.46747 9.45529,75.87094 -0.18708,1.93933 -0.40985,3.86685 -0.66845,5.78131 m 5.07349,3.73232 c -0.62873,24.30773 -4.73544,45.70062 -12.47091,64.82654 m 3.93364,-10.8388 c -8.02955,31.38929 -21.03932,60.44317 -40.18198,88.04726 m 18.33911,-20.64289 c -13.89215,22.48093 -29.7318,44.65633 -48.75702,63.18971 m 11.44342,-19.19025 c -21.34889,23.08234 -46.96166,42.97806 -74.43181,56.55951 m 17.43486,-10.27286 c -26.03885,18.12324 -55.55936,29.33664 -82.93285,35.21892 m 23.05957,-13.7419 c -22.40476,6.78093 -46.21806,10.83465 -70.68197,11.9781 m 22.57481,4.30618 c -6.91843,0.60248 -13.82279,0.90933 -20.73071,0.92958 -25.52284,0.0748 -50.92473,-3.76151 -77.13435,-10.91697 m 32.01758,9.09127 c -30.855,-6.73572 -59.99807,-16.538 -88.86,-31.82893 m 21.19424,10.1426 c -21.80213,-10.75681 -43.01559,-23.9242 -62.87867,-39.6687 m 12.48417,6.71018 c -21.19432,-16.23156 -37.89555,-34.80913 -50.468,-55.14119 m 5.74333,9.99209 c -17.77845,-22.77224 -31.47731,-46.38812 -40.82509,-71.11078 m 8.93211,19.38882 C 302.1674,418.48444 296.37853,391.41943 296.15688,363.95601 m -3.07754,20.37133 c -3.47035,-15.87872 -4.86962,-30.98575 -4.63361,-45.59038 0.15837,-9.80059 1.0528,-19.35568 2.54295,-28.74802 m 1.90957,18.66114 c 0.62384,-30.58004 8.60555,-60.63001 21.07627,-87.18635 m -16.89898,20.01891 c 8.78097,-29.88675 25.86345,-60.88348 47.16717,-89.24334 m -11.65406,25.58934 c 19.57577,-27.70111 39.31911,-52.61977 62.61758,-74.36422 m -13.53105,24.46981 c 19.72037,-16.31342 41.50469,-29.95441 65.00885,-39.09143 m -18.65405,1.78203 C 454.8253,96.283297 485.50844,86.255952 515.19647,82.336168 m -27.91859,10.622889 c 18.02878,-3.258086 37.6124,-6.419873 58.20295,-8.607738 12.82191,-1.362401 25.94297,-2.336647 39.19508,-2.720895 m -21.16161,3.830398 c 30.66415,2.073679 57.94489,8.433112 81.92555,20.983788 m -17.92782,-8.589843 c 26.48136,9.230503 51.77958,20.360873 72.8539,34.875393 m -18.38327,-4.64808 c 21.1521,13.88286 40.9874,28.08644 57.75452,43.27716 m -9.88055,-17.65083 c 18.08037,18.92739 35.37546,41.88455 49.38256,68.57981 m -12.86067,-16.37063 c 16.40832,25.48506 28.50896,52.94961 36.64279,80.64308 m -5.90233,-29.30107 c 6.31442,24.62376 10.84664,50.70381 11.27349,77.8814 m -4.47214,-9.60291 c 0.37333,5.75894 0.61127,11.59743 0.70845,17.47934 0.32759,19.82897 -0.94717,40.01808 -3.96322,59.18031 M 342.21188,171.31711 458.06685,89.722835 m 302.8263,91.861355 50.99853,132.20874 M 637.02567,89.722837 752.88064,171.31711 M 739.92831,522.97503 618.38481,595.8254 M 288.37808,398.02698 295.33116,256.49375"
           id="path4194" />
        <ellipse
           transform="matrix(1.5224392,1.1042287,-0.30539004,0.42105205,-364.62416,-67.01765)"
           ry="52.74221"
           rx="50.260223"
           cy="469.71588"
           cx="477.16187"
           id="ellipse4202"
           style="color:#000000;display:inline;overflow:visible;visibility:visible;opacity:0.33300003;fill:#f7f1f1;fill-opacity:1;fill-rule:evenodd;stroke:none;stroke-width:1px;stroke-linecap:butt;stroke-linejoin:miter;stroke-opacity:1;marker:none;filter:url(#filter8893);enable-background:accumulate" />
      </g>
    </g>
  </g>
</svg>
